<svg width="358" height="662" viewBox="0 0 358 662" fill="none" xmlns="http://www.w3.org/2000/svg">
<mask id="mask0_520_253" style="mask-type:alpha" maskUnits="userSpaceOnUse" x="0" y="0" width="358" height="662">
<path d="M0 0H358V662H0V0Z" fill="#D9D9D9"/>
</mask>
<g mask="url(#mask0_520_253)">
<line x1="356" y1="331.5" x2="2" y2="331.5" stroke="#DADADA"/>
<line x1="179.5" y1="2" x2="179.5" y2="660" stroke="#DADADA"/>
<line x1="196.5" y1="2" x2="196.5" y2="332" stroke="#DADADA"/>
<line x1="213.5" y1="2" x2="213.5" y2="332" stroke="#DADADA"/>
<line x1="230.5" y1="2" x2="230.5" y2="332" stroke="#DADADA"/>
<line x1="247.5" y1="2" x2="247.5" y2="332" stroke="#DADADA"/>
<line x1="264.5" y1="2" x2="264.5" y2="332" stroke="#DADADA"/>
<line x1="281.5" y1="2" x2="281.5" y2="332" stroke="#DADADA"/>
<line x1="298.5" y1="2" x2="298.5" y2="332" stroke="#DADADA"/>
<line x1="315.5" y1="2" x2="315.5" y2="332" stroke="#DADADA"/>
<line x1="332.5" y1="2" x2="332.5" y2="332" stroke="#DADADA"/>
<line x1="26.5" y1="331" x2="26.5" y2="660" stroke="#DADADA"/>
<line x1="43.5" y1="331" x2="43.5" y2="660" stroke="#DADADA"/>
<line x1="60.5" y1="331" x2="60.5" y2="660" stroke="#DADADA"/>
<line x1="77.5" y1="331" x2="77.5" y2="660" stroke="#DADADA"/>
<line x1="94.5" y1="331" x2="94.5" y2="660" stroke="#DADADA"/>
<line x1="111.5" y1="331" x2="111.5" y2="660" stroke="#DADADA"/>
<line x1="128.5" y1="331" x2="128.5" y2="660" stroke="#DADADA"/>
<line x1="145.5" y1="331" x2="145.5" y2="660" stroke="#DADADA"/>
<line x1="162.5" y1="331" x2="162.5" y2="660" stroke="#DADADA"/>
</g>
<g clip-path="url(#clip0_520_253)">
<path fill-rule="evenodd" clip-rule="evenodd" d="M154.963 342.856L178.739 296.03V343.385C176.561 343.887 174.937 345.838 174.937 348.169C174.937 350.88 177.135 353.078 179.846 353.078C182.558 353.078 184.756 350.88 184.756 348.169C184.756 345.886 183.198 343.967 181.088 343.418V295.771L204.796 342.856C202.925 348.81 199.409 361.957 198.823 371.241C186.292 370.568 173.734 370.562 161.203 371.226C160.913 366.168 159.432 356.516 154.963 342.856ZM151.265 374.902V380.14C170.087 378.626 189 378.626 207.822 380.14V374.85C188.999 373.342 170.085 373.36 151.265 374.902ZM151.265 382.147V399.01C151.265 405.514 154.665 411.443 159.709 415.916C173.275 415.152 186.874 415.172 200.438 415.977C204.938 411.497 207.822 405.544 207.822 399.01V382.147C189 380.624 170.086 380.624 151.265 382.147ZM180.788 424.229C174.322 424.229 167.496 421.796 162.039 417.795C174.133 417.19 186.251 417.213 198.343 417.862C193.472 421.823 187.217 424.229 180.788 424.229Z" fill="#222222"/>
<path d="M261.991 275.666C261.526 276.188 250.515 288.557 230.799 289.709C222.75 290.178 214.367 288.686 205.881 285.269C195.898 281.256 185.652 274.513 175.405 265.231C175.145 264.999 174.884 264.766 174.623 264.534C158.36 250.036 143.161 243.794 129.431 245.983C122.111 247.148 115.361 250.666 109.373 256.441C104.813 260.837 102.437 264.956 102.418 264.991L97.1588 262.009C97.2678 261.815 99.891 257.226 105.01 252.245C111.828 245.615 119.92 241.386 128.411 240.015C144.036 237.497 160.932 244.23 178.648 260.024C178.918 260.265 179.191 260.508 179.463 260.751L180.34 261.532C197.802 277.1 214.608 284.544 230.321 283.676C237.421 283.304 244.31 281.129 250.336 277.356C254.931 274.494 257.421 271.706 257.444 271.678L261.991 275.666Z" fill="#222222"/>
<path d="M263.055 269.927C260.985 268.083 257.813 268.265 255.968 270.334C254.124 272.403 254.306 275.575 256.375 277.42C258.444 279.264 261.616 279.082 263.461 277.013C265.306 274.944 265.124 271.772 263.055 269.927Z" fill="#F6F6F6"/>
<path d="M263.608 269.309C264.472 270.079 265.087 271.087 265.378 272.207C265.668 273.327 265.62 274.508 265.239 275.6C264.858 276.693 264.162 277.648 263.238 278.344C262.314 279.041 261.205 279.448 260.05 279.514C258.895 279.58 257.746 279.303 256.749 278.716C255.752 278.129 254.951 277.26 254.448 276.218C253.945 275.176 253.763 274.008 253.923 272.863C254.084 271.717 254.581 270.645 255.351 269.781C256.384 268.625 257.834 267.926 259.382 267.837C260.93 267.749 262.45 268.278 263.608 269.309ZM256.928 276.802C257.547 277.354 258.316 277.71 259.138 277.825C259.959 277.94 260.797 277.808 261.544 277.448C262.29 277.087 262.914 276.513 263.334 275.798C263.755 275.083 263.954 274.259 263.907 273.431C263.859 272.603 263.567 271.807 263.067 271.145C262.568 270.483 261.883 269.984 261.1 269.71C260.316 269.437 259.47 269.403 258.667 269.611C257.864 269.819 257.141 270.261 256.589 270.88C255.848 271.71 255.468 272.801 255.532 273.911C255.596 275.022 256.098 276.061 256.928 276.802Z" fill="#222222"/>
<path d="M102.601 259.286C100.532 257.441 97.3592 257.623 95.5147 259.692C93.6701 261.762 93.8521 264.934 95.9211 266.779C97.9902 268.623 101.163 268.441 103.007 266.372C104.852 264.303 104.67 261.131 102.601 259.286Z" fill="#F6F6F6"/>
<path d="M103.153 258.667C104.016 259.437 104.631 260.446 104.921 261.566C105.211 262.685 105.162 263.866 104.781 264.958C104.399 266.05 103.703 267.005 102.779 267.701C101.856 268.397 100.746 268.804 99.5914 268.87C98.4366 268.936 97.2882 268.658 96.2914 268.071C95.2945 267.484 94.494 266.615 93.9911 265.574C93.4881 264.532 93.3053 263.365 93.4657 262.219C93.6261 261.074 94.1225 260.001 94.8923 259.138C95.9257 257.981 97.3762 257.281 98.9252 257.193C100.474 257.105 101.995 257.635 103.153 258.667ZM96.4722 266.161C97.0914 266.713 97.8603 267.069 98.6819 267.184C99.5034 267.299 100.341 267.167 101.087 266.807C101.834 266.446 102.458 265.872 102.878 265.157C103.299 264.442 103.498 263.618 103.45 262.79C103.403 261.962 103.111 261.166 102.611 260.504C102.112 259.842 101.427 259.343 100.644 259.07C99.8604 258.797 99.0137 258.762 98.2107 258.97C97.4077 259.178 96.6845 259.62 96.1325 260.239C95.3923 261.069 95.0122 262.16 95.0759 263.27C95.1396 264.381 95.6419 265.42 96.4722 266.161Z" fill="#222222"/>
<path d="M203.215 308.095L204.263 307.474L151.599 218.505L150.551 219.126L203.215 308.095Z" fill="#222222"/>
<path d="M203.135 306.121C202.218 306.452 201.743 307.464 202.074 308.381C202.404 309.298 203.416 309.773 204.333 309.442C205.25 309.111 205.725 308.099 205.394 307.183C205.063 306.266 204.052 305.791 203.135 306.121Z" fill="#222222"/>
<path d="M151.221 217.803C150.291 218.084 149.766 219.066 150.047 219.996C150.328 220.926 151.31 221.451 152.239 221.17C153.169 220.889 153.695 219.907 153.414 218.978C153.133 218.048 152.151 217.522 151.221 217.803Z" fill="#222222"/>
<path d="M171.146 263.646L177.77 269.551L183.675 262.927L177.051 257.022L171.146 263.646Z" fill="#F6F6F6"/>
<path d="M176.976 255.705L184.994 262.853L177.847 270.871L169.83 263.723L176.976 255.705ZM182.359 263.002L177.128 258.339L172.463 263.571L177.694 268.234L182.359 263.002Z" fill="#222222"/>
</g>
<defs>
<clipPath id="clip0_520_253">
<rect width="193" height="221" fill="white" transform="translate(83 210)"/>
</clipPath>
</defs>
</svg>
