<svg width="24" height="20" viewBox="0 0 24 20" fill="none" xmlns="http://www.w3.org/2000/svg">
<path d="M11.7829 15.2277L12.2529 15.0571L12.1334 14.7277H11.7829V15.2277ZM5.56786 15.2277V14.7277H5.20997L5.09457 15.0665L5.56786 15.2277ZM13.1529 19.0029L13.6317 18.8588L13.6277 18.8455L13.6229 18.8324L13.1529 19.0029ZM13.4202 19.1774V18.6774H13.3865L13.353 18.682L13.4202 19.1774ZM17.0791 18.9236L17.5596 18.7856L17.5543 18.7669L17.5475 18.7488L17.0791 18.9236ZM10.981 2.58539L10.4917 2.68846L10.4994 2.72513L10.5125 2.76023L10.981 2.58539ZM6.43663 2.4585V1.9585H6.38958L6.34336 1.96727L6.43663 2.4585ZM6.30298 2.63298H6.80298V2.58089L6.79224 2.52992L6.30298 2.63298ZM6.20273 3.66403L6.6745 3.82966L6.68609 3.79667L6.69297 3.76239L6.20273 3.66403ZM6.07991 4.04474L6.55788 4.19149L6.55789 4.19149L6.07991 4.04474ZM6.03566 4.18749L6.50522 4.35928L6.50906 4.34879L6.51243 4.33814L6.03566 4.18749ZM0.655968 18.8919L0.186407 18.7201L0.178391 18.742L0.17245 18.7646L0.655968 18.8919ZM3.98069 19.1774L4.03314 18.6802L4.00699 18.6774H3.98069V19.1774ZM4.29812 18.9553L3.82483 18.7941L3.81689 18.8174L3.81128 18.8414L4.29812 18.9553ZM6.53688 12.0077L6.0689 11.8316L5.8146 12.5077H6.53688V12.0077ZM10.7805 12.0077V12.5077H11.4531L11.2593 11.8636L10.7805 12.0077ZM7.272 9.78694L6.79818 9.62725L6.7947 9.63759L6.79167 9.64807L7.272 9.78694ZM7.75323 8.32141L8.22889 8.47553V8.47553L7.75323 8.32141ZM8.04052 7.43931L7.56752 7.27711L7.56559 7.28299L8.04052 7.43931ZM8.60857 5.39307V4.89307H8.20678L8.12029 5.28543L8.60857 5.39307ZM8.64198 5.39307L9.11994 5.24624L9.01144 4.89307H8.64198V5.39307ZM8.84044 6.05927L8.36069 6.20011L8.36069 6.20011L8.84044 6.05927ZM9.00954 6.63033L9.4897 6.49082L9.48833 6.48625L9.00954 6.63033ZM9.46063 8.04208L9.93405 7.88123L9.46063 8.04208ZM9.70288 8.77176L9.2278 8.92761L9.70288 8.77176ZM9.94514 9.50142L10.422 9.35074L10.4186 9.34057L9.94514 9.50142ZM10.3962 10.8656L9.92443 11.0312L9.92647 11.0368L10.3962 10.8656ZM11.7829 14.7277H5.56786V15.7277H11.7829V14.7277ZM13.6229 18.8324L12.2529 15.0571L11.3129 15.3982L12.6829 19.1735L13.6229 18.8324ZM13.353 18.682C13.4276 18.6718 13.4894 18.6932 13.5308 18.7205C13.5715 18.7475 13.6118 18.7926 13.6317 18.8588L12.6741 19.147C12.7754 19.4834 13.1166 19.7232 13.4874 19.6729L13.353 18.682ZM16.912 18.6774H13.4202V19.6774H16.912V18.6774ZM16.5985 19.0617C16.6033 19.0782 16.5974 19.0654 16.5976 19.0328C16.5979 18.9976 16.6059 18.923 16.6581 18.8429C16.774 18.6651 16.9474 18.6774 16.912 18.6774V19.6774C17.0436 19.6774 17.3256 19.6501 17.4958 19.389C17.6498 19.1529 17.592 18.8981 17.5596 18.7856L16.5985 19.0617ZM10.5125 2.76023L16.6106 19.0985L17.5475 18.7488L11.4494 2.41056L10.5125 2.76023ZM10.7638 2.9585C10.7792 2.9585 10.7266 2.9625 10.6545 2.91823C10.6158 2.89446 10.5774 2.86008 10.5464 2.8148C10.5157 2.7701 10.4995 2.72536 10.4917 2.68846L11.4702 2.48233C11.4355 2.31762 11.3383 2.16465 11.178 2.06618C11.0349 1.97829 10.882 1.9585 10.7638 1.9585V2.9585ZM6.48675 2.9585H10.7638V1.9585H6.48675V2.9585ZM6.43663 2.9585H6.48675V1.9585H6.43663V2.9585ZM6.79224 2.52992C6.82027 2.663 6.77252 2.77117 6.72457 2.83188C6.67766 2.89126 6.61054 2.93441 6.52991 2.94972L6.34336 1.96727C6.06321 2.02047 5.72406 2.31045 5.81371 2.73604L6.79224 2.52992ZM6.69297 3.76239C6.76661 3.39531 6.80298 3.01332 6.80298 2.63298H5.80298C5.80298 2.95059 5.77252 3.26654 5.7125 3.56568L6.69297 3.76239ZM6.55789 4.19149C6.59468 4.07165 6.63091 3.95382 6.6745 3.82966L5.73096 3.4984C5.67986 3.64397 5.63817 3.77995 5.60193 3.89798L6.55789 4.19149ZM6.51243 4.33814C6.52776 4.28962 6.54298 4.24005 6.55788 4.19149L5.60193 3.89798C5.58679 3.94729 5.57278 3.99289 5.5589 4.03685L6.51243 4.33814ZM1.12553 19.0637L6.50522 4.35928L5.5661 4.0157L0.186407 18.7201L1.12553 19.0637ZM0.839747 18.6774C0.811421 18.6774 0.97875 18.6695 1.08616 18.8443C1.13131 18.9178 1.13726 18.9831 1.13764 19.0095C1.13801 19.0344 1.13388 19.0405 1.13949 19.0192L0.17245 18.7646C0.140688 18.8852 0.0911154 19.135 0.234129 19.3678C0.400015 19.6378 0.684295 19.6774 0.839747 19.6774V18.6774ZM3.98069 18.6774H0.839747V19.6774H3.98069V18.6774ZM3.81128 18.8414C3.83631 18.7344 3.93722 18.6701 4.03314 18.6802L3.92823 19.6747C4.32488 19.7165 4.6931 19.4618 4.78496 19.0693L3.81128 18.8414ZM5.09457 15.0665L3.82483 18.7941L4.77142 19.1166L6.04116 15.3889L5.09457 15.0665ZM6.53688 12.5077H10.7805V11.5077H6.53688V12.5077ZM6.79167 9.64807C6.56143 10.4444 6.31496 11.1775 6.0689 11.8316L7.00487 12.1837C7.26002 11.5054 7.51476 10.7475 7.75232 9.92582L6.79167 9.64807ZM7.27758 8.1673C7.12078 8.65124 6.96258 9.13947 6.79818 9.62725L7.74581 9.94664C7.9124 9.45237 8.07238 8.95857 8.22889 8.47553L7.27758 8.1673ZM7.56559 7.28299C7.46971 7.5743 7.37389 7.87003 7.27758 8.1673L8.22889 8.47553C8.32533 8.17786 8.42043 7.88436 8.51546 7.59564L7.56559 7.28299ZM8.12029 5.28543C7.97328 5.9523 7.79434 6.61581 7.56756 7.27712L8.51349 7.6015C8.75451 6.89865 8.94312 6.198 9.09684 5.50071L8.12029 5.28543ZM8.64198 4.89307H8.60857V5.89307H8.64198V4.89307ZM9.3202 5.91843C9.2523 5.68713 9.18621 5.46198 9.11994 5.24624L8.16402 5.5399C8.22813 5.74858 8.29242 5.96756 8.36069 6.20011L9.3202 5.91843ZM9.48833 6.48625C9.42974 6.29155 9.37432 6.10279 9.3202 5.91843L8.36069 6.20011C8.41468 6.38403 8.47103 6.57598 8.53075 6.77442L9.48833 6.48625ZM9.93405 7.88123C9.76798 7.39245 9.62032 6.94045 9.48968 6.49083L8.52939 6.76984C8.66607 7.24023 8.81913 7.70825 8.98721 8.20293L9.93405 7.88123ZM10.178 8.6159C10.0987 8.37437 10.0186 8.13 9.93405 7.88123L8.98721 8.20293C9.06976 8.44591 9.14831 8.68533 9.2278 8.92761L10.178 8.6159ZM10.4186 9.34057C10.336 9.0976 10.2575 8.85818 10.178 8.6159L9.2278 8.92761C9.30703 9.16913 9.3872 9.41351 9.47171 9.66227L10.4186 9.34057ZM10.868 10.7C10.72 10.2785 10.5714 9.82398 10.4219 9.35077L9.46837 9.65207C9.61958 10.1306 9.77169 10.5961 9.92446 11.0312L10.868 10.7ZM11.2593 11.8636C11.1556 11.5191 11.0187 11.1132 10.866 10.6943L9.92647 11.0368C10.0745 11.4428 10.2049 11.83 10.3017 12.1518L11.2593 11.8636Z" fill="#222222"/>
<path d="M20.7212 5.17115L20.7491 4.67193L20.728 4.67075L20.7068 4.67135L20.7212 5.17115ZM19.2343 4.61597L18.8752 4.96391L18.8862 4.9752L18.8978 4.98579L19.2343 4.61597ZM22.2416 4.61597L21.89 4.26046L21.8897 4.26077L22.2416 4.61597ZM22.8263 3.15663L22.3266 3.14068L22.3261 3.15639L22.3266 3.17211L22.8263 3.15663ZM22.275 1.74488L22.6348 1.39751L22.6272 1.39001L22.275 1.74488ZM19.2677 1.74488L19.6042 2.1147H19.6042L19.2677 1.74488ZM18.6662 3.15663L19.166 3.17211L19.1665 3.15663L19.166 3.14115L18.6662 3.15663ZM20.7068 4.67135C20.2888 4.68338 19.879 4.52653 19.5708 4.24614L18.8978 4.98579C19.3916 5.43507 20.051 5.69064 20.7356 5.67094L20.7068 4.67135ZM21.8897 4.26077C21.6125 4.53537 21.1854 4.69629 20.7491 4.67193L20.6933 5.67037C21.3931 5.70945 22.1021 5.45795 22.5935 4.97116L21.8897 4.26077ZM22.3266 3.17211C22.339 3.57467 22.1907 3.96309 21.89 4.26046L22.5932 4.97147C23.0944 4.47573 23.347 3.81722 23.3261 3.14115L22.3266 3.17211ZM21.9153 2.09217C22.1917 2.37849 22.3389 2.75611 22.3266 3.14068L23.3261 3.17258C23.3472 2.51023 23.0934 1.87266 22.6347 1.39759L21.9153 2.09217ZM20.7546 1.6897C21.3025 1.6897 21.6672 1.84607 21.9228 2.09974L22.6272 1.39001C22.1477 0.914026 21.5099 0.689697 20.7546 0.689697V1.6897ZM19.6042 2.1147C19.9049 1.84108 20.3162 1.6897 20.7546 1.6897V0.689697C20.0904 0.689697 19.4324 0.919013 18.9312 1.37505L19.6042 2.1147ZM19.166 3.14115C19.1539 2.74969 19.3101 2.38232 19.6042 2.1147L18.9312 1.37505C18.4234 1.8371 18.1452 2.48493 18.1665 3.17211L19.166 3.14115ZM19.5934 4.26802C19.303 3.96837 19.1535 3.57594 19.166 3.17211L18.1665 3.14115C18.1456 3.81596 18.397 4.47044 18.8752 4.96391L19.5934 4.26802ZM19.3499 18.9393V6.72528H18.3499V18.9393H19.3499ZM19.1005 18.6931C19.1114 18.6931 19.1956 18.6983 19.2737 18.7799C19.3483 18.8577 19.3499 18.9354 19.3499 18.9393H18.3499C18.3499 19.1018 18.3933 19.3064 18.5514 19.4715C18.7131 19.6403 18.9226 19.6931 19.1005 19.6931V18.6931ZM22.3751 18.6931H19.1005V19.6931H22.3751V18.6931ZM22.0923 18.9393C22.0923 18.9791 22.0817 18.8986 22.1596 18.8072C22.2529 18.6979 22.3654 18.6931 22.3751 18.6931V19.6931C22.5352 19.6931 22.7563 19.6486 22.9206 19.456C23.0695 19.2813 23.0923 19.0739 23.0923 18.9393H22.0923ZM22.0923 6.72528V18.9393H23.0923V6.72528H22.0923ZM22.3751 7.00321C22.3662 7.00321 22.2666 6.9995 22.1762 6.90363C22.135 6.85984 22.1131 6.81393 22.1024 6.77977C22.0923 6.74771 22.0923 6.727 22.0923 6.72528H23.0923C23.0923 6.58475 23.0601 6.38341 22.904 6.2178C22.7426 6.04658 22.5344 6.00321 22.3751 6.00321V7.00321ZM19.0671 7.00321H22.3751V6.00321H19.0671V7.00321ZM19.3499 6.72528C19.3499 6.70144 19.3572 6.80629 19.2566 6.90738C19.1552 7.00933 19.048 7.00321 19.0671 7.00321V6.00321C18.9358 6.00321 18.7201 6.02882 18.5476 6.20214C18.3761 6.37461 18.3499 6.59051 18.3499 6.72528H19.3499Z" fill="#222222"/>
</svg>
