<svg width="73" height="60" viewBox="0 0 73 60" fill="none" xmlns="http://www.w3.org/2000/svg">
<path d="M37.3356 33.9293C37.4695 31.5405 38.6392 29.4359 40.404 27.944C42.1347 26.4786 44.4641 25.583 47.0057 25.583C49.5449 25.583 51.8743 26.4786 53.6062 27.944C55.3697 29.4359 56.5395 31.5405 56.6747 33.9267C56.8086 36.3812 55.822 38.6614 54.0913 40.3516C52.3266 42.0709 49.8165 43.1498 47.0057 43.1498C44.195 43.1498 41.6799 42.0709 39.9164 40.3516C38.1845 38.6614 37.2004 36.3813 37.3356 33.9293Z" stroke="#222222"/>
<path d="M21.9368 38.7563C21.9533 39.6911 22.2514 41.5077 22.6986 42.9263C23.6384 45.9291 25.2327 48.7069 27.4509 51.1551C29.7273 53.6715 32.5305 55.6927 35.7682 57.1277C39.1714 58.6348 42.8588 59.4029 46.689 59.3966C50.5128 59.3915 54.2003 58.6083 57.6035 57.0899C60.8412 55.6409 63.6418 53.6109 65.9144 51.0932C68.1314 48.6349 69.7231 45.852 70.6655 42.8493C71.1392 41.3321 71.4386 39.7922 71.5586 38.2472C71.6761 36.725 71.6268 35.2003 71.4108 33.6768C70.9889 30.7081 69.9618 27.9227 68.3802 25.3835C66.9338 23.0503 65.0693 21.0077 62.8523 19.2884L62.8573 19.2846L40.4839 2.10564C40.4637 2.09048 40.4473 2.07409 40.4258 2.06019C38.9579 0.933371 36.4895 0.937167 34.8751 2.06651C33.2429 3.20849 33.056 5.09702 34.5087 6.28827L34.5024 6.29459L43.834 13.8829L15.3919 13.9133H15.354C13.0031 13.9158 10.7432 15.4582 10.296 17.4074C9.83617 19.3932 11.4329 21.0405 13.8773 21.0493L13.8735 21.0582L28.2897 21.0304L2.56489 40.7762C2.53204 40.8002 2.49667 40.8255 2.46635 40.8495C0.0396457 42.7078 -0.744815 45.7977 0.783719 47.7532C2.33499 49.7415 5.63334 49.7453 8.08531 47.7646L22.1251 36.274C22.1251 36.274 21.9204 37.8253 21.9368 38.7563ZM58.014 43.9508C55.1212 46.898 51.0712 48.5693 46.689 48.5781C42.3004 48.5857 38.2505 46.9296 35.3576 43.9875C33.944 42.5537 32.9056 40.9039 32.2652 39.1467C31.6373 37.4198 31.3935 35.5868 31.5552 33.7374C31.7081 31.9297 32.2462 30.2054 33.1053 28.6453C33.9491 27.1117 35.1113 25.7259 36.5463 24.5536C39.3583 22.2621 42.9384 21.0215 46.6827 21.0165C50.4307 21.0114 54.0083 22.2406 56.8228 24.5245C58.2553 25.6918 59.4162 27.0725 60.2601 28.6036C61.1229 30.1624 61.6572 31.8804 61.8164 33.6932C61.9756 35.5401 61.7318 37.3706 61.1039 39.0987C60.4622 40.8609 59.4276 42.5107 58.014 43.9508Z" stroke="#222222"/>
</svg>
