<svg width="51" height="51" viewBox="0 0 51 51" fill="none" xmlns="http://www.w3.org/2000/svg">
<g clip-path="url(#clip0_299_754)">
<path d="M17.5173 49.9464C22.0636 49.9464 25.749 46.261 25.749 41.7148V33.4832H17.5173C12.9711 33.4832 9.28571 37.1686 9.28571 41.7148C9.28571 46.261 12.9711 49.9464 17.5173 49.9464Z" stroke="#222222"/>
<path d="M9.28571 25.2517C9.28571 20.7054 12.9711 17.02 17.5173 17.02H25.749V33.4833H17.5173C12.9711 33.4833 9.28571 29.7979 9.28571 25.2517Z" stroke="#222222"/>
<path d="M9.28571 8.78828C9.28571 4.24207 12.9711 0.556641 17.5173 0.556641H25.749V17.0199H17.5173C12.9711 17.0199 9.28571 13.3345 9.28571 8.78828Z" stroke="#222222"/>
<path d="M25.749 0.556641H33.9807C38.5269 0.556641 42.2123 4.24207 42.2123 8.78828C42.2123 13.3345 38.5269 17.0199 33.9807 17.0199H25.749V0.556641Z" stroke="#222222"/>
<path d="M42.2123 25.2517C42.2123 29.7979 38.5269 33.4833 33.9807 33.4833C29.4345 33.4833 25.749 29.7979 25.749 25.2517C25.749 20.7054 29.4345 17.02 33.9807 17.02C38.5269 17.02 42.2123 20.7054 42.2123 25.2517Z" stroke="#222222"/>
</g>
<defs>
<clipPath id="clip0_299_754">
<rect width="49.7328" height="49.7328" fill="white" transform="translate(0.882568 0.385254)"/>
</clipPath>
</defs>
</svg>
