<svg width="74" height="30" viewBox="0 0 74 30" fill="none" xmlns="http://www.w3.org/2000/svg">
<path fill-rule="evenodd" clip-rule="evenodd" d="M56.0968 1.62291C47.8365 1.22096 38.708 1.89188 34.3179 2.3837C24.0745 3.53129 15.3231 5.90618 9.4241 8.79369C6.47075 10.2393 4.26791 11.7964 2.94279 13.3619C1.62458 14.9192 1.21586 16.4269 1.6929 17.852C2.07931 19.0064 3.05584 19.995 4.48571 20.8282C5.91102 21.6587 7.73286 22.3026 9.70953 22.7902C13.6613 23.765 18.1348 24.0919 21.0449 24.0919C21.321 24.0919 21.5449 24.3158 21.5449 24.5919C21.5449 24.8681 21.321 25.0919 21.0449 25.0919C18.0805 25.0919 13.5222 24.7607 9.47003 23.7611C7.44476 23.2616 5.52168 22.5892 3.98225 21.6922C2.44738 20.7978 1.23936 19.6475 0.744614 18.1694C0.120204 16.304 0.721147 14.4388 2.17951 12.7158C3.63097 11.001 5.97161 9.37028 8.98445 7.89552C15.0178 4.94222 23.8897 2.54574 34.2066 1.38991C38.6282 0.894555 47.8138 0.218668 56.1454 0.624087C60.3075 0.826618 64.2871 1.30018 67.3602 2.21472C68.8966 2.67194 70.2321 3.24671 71.2551 3.97167C72.281 4.6986 73.0199 5.59716 73.2979 6.70053C73.9365 9.23467 73.118 11.8973 70.9609 14.4409C68.8088 16.9786 65.2977 19.4364 60.4392 21.6229C50.718 25.9977 35.4806 29.3405 14.5158 29.9997C14.2398 30.0084 14.009 29.7917 14.0003 29.5157C13.9917 29.2397 14.2084 29.0089 14.4844 29.0002C35.3747 28.3433 50.4694 25.013 60.0288 20.711C64.8106 18.559 68.1769 16.1776 70.1982 13.7941C72.2145 11.4166 72.8653 9.0763 72.3283 6.94488C72.1256 6.14087 71.5748 5.42379 70.677 4.78757C69.7764 4.14937 68.5544 3.61345 67.075 3.17318C64.1164 2.29272 60.2306 1.82406 56.0968 1.62291Z" fill="#222222"/>
</svg>
