<svg width="283" height="236" viewBox="0 0 283 236" fill="none" xmlns="http://www.w3.org/2000/svg">
<path d="M1.33483 71.5836L15.7701 121.191C19.8365 123.142 22.2081 120.378 22.8857 118.751C17.8707 102.69 9.52315 75.5144 10.0775 76.0218C14.0627 79.6688 20.4092 79.9727 24.1331 78.5245C28.2074 76.9401 31.2979 73.8182 33.5255 68.871L31.2979 55.9651C26.4568 51.4145 13.8183 48.6909 6.0111 53.0824C-1.7961 57.4738 -0.359411 67.2463 1.33483 71.5836Z" fill="#222222"/>
<path d="M66.9007 18.7535L55.3638 69.1139C57.966 72.798 61.3835 71.5373 62.767 70.4464C66.2042 53.975 72.1401 26.173 72.3775 26.886C74.0835 32.0116 79.4794 35.3663 83.4373 35.9139C87.7676 36.513 91.9869 35.2903 96.3409 32.053L100.677 19.6949C98.6631 13.3633 88.9486 4.8323 79.9911 4.86823C71.0337 4.90416 67.5319 14.1401 66.9007 18.7535Z" fill="#222222"/>
<path d="M18.2832 117.532C23.6348 147.107 55.8008 213.861 141.652 244.281" stroke="#222222" stroke-width="2"/>
<path d="M61.0332 60.0731C50.6116 96.4077 42.4433 184.118 93.1427 244.281" stroke="#222222" stroke-width="2"/>
<path d="M198.766 155.688L195.752 146.823M206.941 155.088L208.714 151.301M216.315 160.869L225.512 156.546M194.613 177.961L190.568 180.92M202.115 179.249L201.981 191.316" stroke="#C97F00" stroke-width="2" stroke-linecap="round" stroke-linejoin="round"/>
<path d="M222.344 244.569C244.251 225.259 279.886 186.088 224.375 173.342C222.467 172.904 216.761 171.853 214.634 171.479M164.577 117.604C132.874 132.351 138.137 152.982 191.984 166.873" stroke="#222222" stroke-width="2"/>
<rect x="162.501" y="113.706" width="34.8438" height="8.43255" transform="rotate(-23.8263 162.501 113.706)" fill="#222222"/>
<path d="M195.211 101.675L211.836 94.3332C212.865 93.8789 214.068 94.3446 214.522 95.3734C214.976 96.4023 214.511 97.6046 213.482 98.0589L196.856 105.401L195.211 101.675Z" fill="#222222"/>
<path d="M191.755 166.764C193.446 167.682 197.592 168.323 200.648 163.541C204.468 157.564 200.342 171.684 203.126 172.12C205.91 172.556 207.219 162.095 207.942 166.405C208.353 168.858 208.979 170.109 214.944 171.5" stroke="#222222" stroke-width="2"/>
</svg>
