<svg width="244" height="458" viewBox="0 0 244 458" fill="none" xmlns="http://www.w3.org/2000/svg">
<path d="M13.3287 268.223C16.3579 261.713 24.0904 258.892 30.5998 261.921L232.214 355.743C238.723 358.772 241.544 366.504 238.515 373.014L199.186 457.527L-26 352.736L13.3287 268.223Z" fill="#222222"/>
<rect x="20.6099" y="269.106" width="12.3383" height="7.51026" transform="rotate(24.955 20.6099 269.106)" fill="#F6F6F6"/>
<rect x="16.3098" y="278.347" width="12.3383" height="12.3383" transform="rotate(24.955 16.3098 278.347)" fill="#F6F6F6"/>
<rect x="9.97217" y="291.965" width="19.3121" height="12.3383" transform="rotate(24.955 9.97217 291.965)" fill="#F6F6F6"/>
<rect x="3.63501" y="305.583" width="23.0672" height="12.3383" transform="rotate(24.955 3.63501 305.583)" fill="#F6F6F6"/>
<rect x="-2.70239" y="319.202" width="29.5046" height="12.3383" transform="rotate(24.955 -2.70239 319.202)" fill="#F6F6F6"/>
<rect x="167.525" y="398.417" width="46.6709" height="12.3383" transform="rotate(24.955 167.525 398.417)" fill="#F6F6F6"/>
<rect x="43.9739" y="357.49" width="86.9044" height="12.3383" transform="rotate(24.955 43.9739 357.49)" fill="#F6F6F6"/>
<rect x="183.103" y="389.099" width="36.4784" height="12.3383" transform="rotate(24.955 183.103 389.099)" fill="#F6F6F6"/>
<rect x="205.004" y="382.724" width="19.3121" height="12.3383" transform="rotate(24.955 205.004 382.724)" fill="#F6F6F6"/>
<rect x="29.9277" y="284.684" width="11.8018" height="12.3383" transform="rotate(24.955 29.9277 284.684)" fill="#F6F6F6"/>
<rect x="29.9131" y="301.245" width="12.3383" height="12.3383" transform="rotate(24.955 29.9131 301.245)" fill="#F6F6F6"/>
<rect x="26.9805" y="316.447" width="12.8747" height="12.3383" transform="rotate(24.955 26.9805 316.447)" fill="#F6F6F6"/>
<rect x="26.4795" y="332.781" width="12.8747" height="12.3383" transform="rotate(24.955 26.4795 332.781)" fill="#F6F6F6"/>
<rect x="-9.26587" y="333.306" width="11.8018" height="12.3383" transform="rotate(24.955 -9.26587 333.306)" fill="#F6F6F6"/>
<rect x="125.197" y="395.287" width="11.8018" height="12.3383" transform="rotate(24.955 125.197 395.287)" fill="#F6F6F6"/>
<rect x="3.86597" y="339.417" width="12.3383" height="12.3383" transform="rotate(24.955 3.86597 339.417)" fill="#F6F6F6"/>
<rect x="138.329" y="401.398" width="12.8747" height="12.3383" transform="rotate(24.955 138.329 401.398)" fill="#F6F6F6"/>
<rect x="16.9978" y="345.528" width="12.3383" height="12.3383" transform="rotate(24.955 16.9978 345.528)" fill="#F6F6F6"/>
<rect x="152.433" y="407.962" width="12.3383" height="12.3383" transform="rotate(24.955 152.433 407.962)" fill="#F6F6F6"/>
<rect x="30.6162" y="351.865" width="11.8018" height="12.3383" transform="rotate(24.955 30.6162 351.865)" fill="#F6F6F6"/>
<rect x="166.051" y="414.299" width="11.8018" height="12.3383" transform="rotate(24.955 166.051 414.299)" fill="#F6F6F6"/>
<rect x="179.183" y="420.41" width="12.3383" height="12.3383" transform="rotate(24.955 179.183 420.41)" fill="#F6F6F6"/>
<rect x="192.802" y="426.747" width="11.8018" height="12.3383" transform="rotate(24.955 192.802 426.747)" fill="#F6F6F6"/>
<rect x="40.5842" y="339.345" width="12.8747" height="12.3383" transform="rotate(24.955 40.5842 339.345)" fill="#F6F6F6"/>
<rect x="54.6885" y="345.909" width="12.8747" height="12.3383" transform="rotate(24.955 54.6885 345.909)" fill="#F6F6F6"/>
<rect x="68.793" y="352.472" width="12.8747" height="12.3383" transform="rotate(24.955 68.793 352.472)" fill="#F6F6F6"/>
<rect x="82.8979" y="359.036" width="12.8747" height="12.3383" transform="rotate(24.955 82.8979 359.036)" fill="#F6F6F6"/>
<rect x="97.0024" y="365.599" width="12.8747" height="12.3383" transform="rotate(24.955 97.0024 365.599)" fill="#F6F6F6"/>
<rect x="111.107" y="372.163" width="12.8747" height="12.3383" transform="rotate(24.955 111.107 372.163)" fill="#F6F6F6"/>
<rect x="125.211" y="378.727" width="12.8747" height="12.3383" transform="rotate(24.955 125.211 378.727)" fill="#F6F6F6"/>
<rect x="139.316" y="385.29" width="12.8747" height="12.3383" transform="rotate(24.955 139.316 385.29)" fill="#F6F6F6"/>
<rect x="153.42" y="391.854" width="12.8747" height="12.3383" transform="rotate(24.955 153.42 391.854)" fill="#F6F6F6"/>
<rect x="41.0847" y="323.011" width="12.8747" height="12.3383" transform="rotate(24.955 41.0847 323.011)" fill="#F6F6F6"/>
<rect x="55.6758" y="329.801" width="12.8747" height="12.3383" transform="rotate(24.955 55.6758 329.801)" fill="#F6F6F6"/>
<rect x="69.7805" y="336.364" width="12.8747" height="12.3383" transform="rotate(24.955 69.7805 336.364)" fill="#F6F6F6"/>
<rect x="83.8853" y="342.928" width="12.8747" height="12.3383" transform="rotate(24.955 83.8853 342.928)" fill="#F6F6F6"/>
<rect x="97.9897" y="349.492" width="12.8747" height="12.3383" transform="rotate(24.955 97.9897 349.492)" fill="#F6F6F6"/>
<rect x="112.094" y="356.055" width="12.8747" height="12.3383" transform="rotate(24.955 112.094 356.055)" fill="#F6F6F6"/>
<rect x="126.199" y="362.619" width="12.8747" height="12.3383" transform="rotate(24.955 126.199 362.619)" fill="#F6F6F6"/>
<rect x="140.303" y="369.182" width="12.8747" height="12.3383" transform="rotate(24.955 140.303 369.182)" fill="#F6F6F6"/>
<rect x="154.894" y="375.972" width="12.8747" height="12.3383" transform="rotate(24.955 154.894 375.972)" fill="#F6F6F6"/>
<rect x="168.999" y="382.536" width="12.8747" height="12.3383" transform="rotate(24.955 168.999 382.536)" fill="#F6F6F6"/>
<rect x="43.5312" y="307.582" width="11.8018" height="12.3383" transform="rotate(24.955 43.5312 307.582)" fill="#F6F6F6"/>
<rect x="56.6633" y="313.693" width="12.3383" height="12.3383" transform="rotate(24.955 56.6633 313.693)" fill="#F6F6F6"/>
<rect x="70.2815" y="320.03" width="11.8018" height="12.3383" transform="rotate(24.955 70.2815 320.03)" fill="#F6F6F6"/>
<rect x="83.4128" y="326.141" width="12.3383" height="12.3383" transform="rotate(24.955 83.4128 326.141)" fill="#F6F6F6"/>
<rect x="97.0315" y="332.478" width="12.3383" height="12.3383" transform="rotate(24.955 97.0315 332.478)" fill="#F6F6F6"/>
<rect x="110.65" y="338.816" width="12.3383" height="12.3383" transform="rotate(24.955 110.65 338.816)" fill="#F6F6F6"/>
<rect x="124.268" y="345.153" width="12.3383" height="12.3383" transform="rotate(24.955 124.268 345.153)" fill="#F6F6F6"/>
<rect x="137.886" y="351.49" width="12.3383" height="12.3383" transform="rotate(24.955 137.886 351.49)" fill="#F6F6F6"/>
<rect x="151.504" y="357.827" width="11.8018" height="12.3383" transform="rotate(24.955 151.504 357.827)" fill="#F6F6F6"/>
<rect x="164.636" y="363.938" width="12.3383" height="12.3383" transform="rotate(24.955 164.636 363.938)" fill="#F6F6F6"/>
<rect x="178.254" y="370.276" width="11.8018" height="12.3383" transform="rotate(24.955 178.254 370.276)" fill="#F6F6F6"/>
<rect x="191.386" y="376.387" width="12.3383" height="12.3383" transform="rotate(24.955 191.386 376.387)" fill="#F6F6F6"/>
<rect x="43.0596" y="290.795" width="12.3383" height="12.3383" transform="rotate(24.955 43.0596 290.795)" fill="#F6F6F6"/>
<rect x="56.678" y="297.132" width="12.3383" height="12.3383" transform="rotate(24.955 56.678 297.132)" fill="#F6F6F6"/>
<rect x="69.8098" y="303.243" width="12.3383" height="12.3383" transform="rotate(24.955 69.8098 303.243)" fill="#F6F6F6"/>
<rect x="83.4277" y="309.581" width="12.3383" height="12.3383" transform="rotate(24.955 83.4277 309.581)" fill="#F6F6F6"/>
<rect x="97.0459" y="315.918" width="11.8018" height="12.3383" transform="rotate(24.955 97.0459 315.918)" fill="#F6F6F6"/>
<rect x="110.178" y="322.029" width="12.3383" height="12.3383" transform="rotate(24.955 110.178 322.029)" fill="#F6F6F6"/>
<rect x="123.796" y="328.366" width="12.3383" height="12.3383" transform="rotate(24.955 123.796 328.366)" fill="#F6F6F6"/>
<rect x="137.414" y="334.703" width="11.8018" height="12.3383" transform="rotate(24.955 137.414 334.703)" fill="#F6F6F6"/>
<rect x="150.546" y="340.814" width="12.3383" height="12.3383" transform="rotate(24.955 150.546 340.814)" fill="#F6F6F6"/>
<rect x="164.164" y="347.151" width="12.3383" height="12.3383" transform="rotate(24.955 164.164 347.151)" fill="#F6F6F6"/>
<rect x="177.296" y="353.262" width="12.3383" height="12.3383" transform="rotate(24.955 177.296 353.262)" fill="#F6F6F6"/>
<rect x="190.914" y="359.599" width="12.3383" height="12.3383" transform="rotate(24.955 190.914 359.599)" fill="#F6F6F6"/>
<rect x="204.532" y="365.937" width="11.8018" height="12.3383" transform="rotate(24.955 204.532 365.937)" fill="#F6F6F6"/>
<rect x="217.664" y="372.048" width="12.3383" height="12.3383" transform="rotate(24.955 217.664 372.048)" fill="#F6F6F6"/>
<rect x="34.2278" y="275.443" width="11.8018" height="7.51026" transform="rotate(24.955 34.2278 275.443)" fill="#F6F6F6"/>
<rect x="47.3601" y="281.554" width="12.3383" height="7.51026" transform="rotate(24.955 47.3601 281.554)" fill="#F6F6F6"/>
<rect x="60.978" y="287.891" width="11.8018" height="7.51026" transform="rotate(24.955 60.978 287.891)" fill="#F6F6F6"/>
<rect x="74.5964" y="294.229" width="11.8018" height="7.51026" transform="rotate(24.955 74.5964 294.229)" fill="#F6F6F6"/>
<rect x="87.728" y="300.34" width="12.3383" height="7.51026" transform="rotate(24.955 87.728 300.34)" fill="#F6F6F6"/>
<rect x="101.346" y="306.677" width="11.8018" height="7.51026" transform="rotate(24.955 101.346 306.677)" fill="#F6F6F6"/>
<rect x="114.478" y="312.788" width="12.3383" height="7.51026" transform="rotate(24.955 114.478 312.788)" fill="#F6F6F6"/>
<rect x="128.096" y="319.125" width="12.3383" height="7.51026" transform="rotate(24.955 128.096 319.125)" fill="#F6F6F6"/>
<rect x="141.714" y="325.462" width="11.8018" height="7.51026" transform="rotate(24.955 141.714 325.462)" fill="#F6F6F6"/>
<rect x="154.846" y="331.573" width="12.3383" height="7.51026" transform="rotate(24.955 154.846 331.573)" fill="#F6F6F6"/>
<rect x="168.465" y="337.911" width="11.8018" height="7.51026" transform="rotate(24.955 168.465 337.911)" fill="#F6F6F6"/>
<rect x="182.083" y="344.248" width="11.8018" height="7.51026" transform="rotate(24.955 182.083 344.248)" fill="#F6F6F6"/>
<rect x="195.214" y="350.359" width="12.3383" height="7.51026" transform="rotate(24.955 195.214 350.359)" fill="#F6F6F6"/>
<rect x="208.833" y="356.696" width="11.8018" height="7.51026" transform="rotate(24.955 208.833 356.696)" fill="#F6F6F6"/>
<rect x="221.964" y="362.807" width="12.3383" height="7.51026" transform="rotate(24.955 221.964 362.807)" fill="#F6F6F6"/>
<path d="M130.416 309.889C117.272 294.847 102.112 267.477 146.627 278.343C202.271 291.926 195.261 256.874 162.839 229.71C130.416 202.545 80.468 163.112 130.416 155.664C160.036 151.247 138.965 109.236 97.3542 68.9181C95.7929 67.4054 91.7154 63.5046 90.0979 61.9987M-7.59814 1C13.0203 8.2261 39.727 23.7031 58.8504 36.8074" stroke="#222222" stroke-width="2"/>
<path d="M58.5146 36.5506C60.1626 37.9787 64.5131 39.9781 68.7314 36.5506C74.0043 32.2663 62.4693 51.3814 67.9072 50.2279C73.3451 49.0744 83.2322 42.6478 81.2548 49.2392C79.6729 54.5123 87.4432 59.0974 90.233 62.1607" stroke="#222222" stroke-width="2"/>
<path d="M68.1631 21.4914L67.2179 6.0531M81.4519 24.0915L85.9244 18.8283M93.8742 37.3805L110.41 34.493M51.8571 55.1766L44.125 58.1323M63.252 60.4916L57.7887 79.6623" stroke="#C97F00" stroke-width="2" stroke-linecap="round" stroke-linejoin="round"/>
</svg>
