<svg width="227" height="265" viewBox="0 0 227 265" fill="none" xmlns="http://www.w3.org/2000/svg">
<path d="M83.7992 62.6486C90.3607 54.0959 88.7321 41.8543 80.1616 35.3064L66.6309 24.9688C58.0603 18.4209 45.7933 20.0461 39.2317 28.5989L5.19827 72.9601C-3.27213 84.001 -1.16975 99.8037 9.89405 108.256L14.3959 111.696C25.4597 120.149 41.2953 118.051 49.7657 107.01L83.7992 62.6486Z" fill="#222222"/>
<path fill-rule="evenodd" clip-rule="evenodd" d="M5.50414 78.856C1.37664 88.0692 3.93148 99.2467 12.2768 105.653L16.2407 108.695C25.9826 116.173 39.9262 114.317 47.3845 104.55L65.0876 81.3656C49.0366 92.3547 22.2369 102.097 5.50414 78.856Z" fill="#F6F6F6"/>
<rect width="8.39106" height="17.1711" rx="4.19553" transform="matrix(-0.794275 -0.607558 -0.607558 0.794275 65.1628 46.6992)" fill="#F6F6F6"/>
<path d="M70.5986 29.0575C69.5852 17.9103 74.5845 -2.96519 102.689 2.70971C130.732 8.3722 162.496 63.4173 141.841 107.297M126.069 138.771C122.818 144.031 123.874 142.483 121.267 147.483C94.0791 199.636 101.519 236.698 135.117 239.164C164.572 241.326 217.763 195.476 234.428 165.863" stroke="#222222" stroke-width="2"/>
<path d="M141.872 107.141C140.859 108.717 139.44 112.816 141.872 116.599C144.913 121.328 135.117 117.275 134.779 120.315C134.441 123.355 135.792 128.084 134.779 128.76C131.791 130.751 133.09 125.382 125.996 138.894" stroke="#222222" stroke-width="2"/>
<path d="M120.304 123.902L108.402 124.631M122.309 113.657L118.251 110.209M132.554 104.08L130.328 91.3316M146.274 136.474L148.553 142.435M150.372 127.689L165.152 131.901" stroke="#C97F00" stroke-width="2" stroke-linecap="round" stroke-linejoin="round"/>
<path d="M86.8425 184.31L86.6055 185.675L94.5685 187.057L93.6636 192.271L85.7006 190.889L85.4636 192.255L94.6325 193.846L96.0115 185.901L86.8425 184.31Z" fill="#222222"/>
<path d="M84.7269 201.452C84.7079 204.26 86.9259 206.345 89.5538 206.363C92.2178 206.381 94.4276 204.344 94.4465 201.554C94.4655 198.746 92.2474 196.679 89.6194 196.661C86.9555 196.643 84.7458 198.662 84.7269 201.452ZM85.9687 201.497C85.9819 199.535 87.6119 198.07 89.6098 198.083C91.6078 198.097 93.2364 199.494 93.2227 201.51C93.2095 203.472 91.5614 204.954 89.5634 204.941C87.5655 204.927 85.955 203.513 85.9687 201.497Z" fill="#222222"/>
<path d="M85.2162 210.028L85.4253 211.398L87.6496 211.059L89.9385 212.694L86.2211 216.612L86.4682 218.231L91.0789 213.485L95.6514 216.72L95.3934 215.03L89.3222 210.803L94.6248 209.994L94.4157 208.624L85.2162 210.028Z" fill="#222222"/>
<path d="M85.0445 224.13C85.5039 225.456 86.4618 226.077 88.5409 226.195L98.9019 226.741L98.4189 225.346L90.1102 225.061L96.3337 219.325L95.833 217.879L88.4576 224.91C87.0334 224.812 86.4543 224.46 86.1834 223.678C85.989 223.117 85.9556 222.69 86.0294 222.188L84.8387 222.105C84.7558 222.801 84.7912 223.398 85.0445 224.13Z" fill="#222222"/>
<path d="M93.9225 236.997C94.8662 238.466 96.1054 238.996 97.4896 239.219L97.7053 237.99C96.6401 237.797 95.6485 237.385 95.0064 236.386C93.9557 234.75 94.5059 232.643 96.2021 231.553C97.9134 230.454 100.04 230.799 101.061 232.39C101.742 233.45 101.709 234.498 101.457 235.537L102.721 235.773C103.026 234.55 103.054 233.227 102.101 231.743C100.632 229.456 97.6446 228.936 95.4335 230.357C93.2073 231.787 92.4535 234.71 93.9225 236.997Z" fill="#222222"/>
<path d="M101.148 245.509C102.399 246.566 103.698 246.673 104.727 246.459L103.833 247.518L104.878 248.4L108.548 244.054C109.315 243.147 109.648 242.25 109.571 241.337C109.492 240.398 108.94 239.461 107.936 238.614C106.891 237.731 105.925 237.34 104.84 237.035L104.424 238.169C105.34 238.424 106.174 238.775 107.013 239.483C108.347 240.61 108.56 241.92 107.491 243.185L107.306 243.406C106.824 242.693 106.296 242.035 105.388 241.268C103.587 239.747 101.675 239.499 100.386 241.026C99.132 242.511 99.8135 244.382 101.148 245.509ZM102.074 244.83C101.111 244.017 100.727 242.798 101.482 241.904C102.225 241.024 103.47 241.085 104.79 242.2C105.656 242.932 106.216 243.663 106.611 244.256L106.054 244.916C105.101 246.044 103.38 245.934 102.074 244.83Z" fill="#222222"/>
<path d="M109.357 251.24L110.651 251.737L112.109 247.939L117.117 249.861L115.659 253.658L116.953 254.155L120.287 245.467L118.993 244.97L117.555 248.718L112.547 246.796L113.985 243.048L112.691 242.552L109.357 251.24Z" fill="#222222"/>
<path d="M126.631 255.956C129.431 256.161 131.659 254.087 131.852 251.466C132.047 248.809 130.162 246.469 127.379 246.264C124.579 246.059 122.369 248.134 122.176 250.755C121.981 253.412 123.848 255.751 126.631 255.956ZM126.758 254.72C124.801 254.576 123.448 252.852 123.594 250.859C123.741 248.867 125.243 247.335 127.254 247.483C129.21 247.626 130.58 249.369 130.434 251.362C130.287 253.355 128.768 254.867 126.758 254.72Z" fill="#222222"/>
</svg>
