<svg width="73" height="73" viewBox="0 0 73 73" fill="none" xmlns="http://www.w3.org/2000/svg">
<path d="M18.4687 18.4688L27.0308 25.1329L31.3049 27.7314C34.4965 29.6719 38.5034 29.6719 41.695 27.7314L45.969 25.1329L54.5312 18.4688L47.8671 27.0309L45.2685 31.3049C43.328 34.4965 43.328 38.5035 45.2685 41.6951L47.8671 45.9691L54.5312 54.5312L45.969 47.8671L41.695 45.2686C38.5034 43.3281 34.4965 43.3281 31.3049 45.2686L27.0308 47.8671L18.4687 54.5312L25.1328 45.9691L27.7314 41.6951C29.6718 38.5035 29.6718 34.4965 27.7314 31.3049L25.1328 27.0309L18.4687 18.4688Z" fill="#413831"/>
<path d="M21.8903 36.8498L19.0842 36.5L21.8903 36.1502L21.9474 36.1431L22.0034 36.1294L26.8631 34.9447C30.8549 33.9716 33.9716 30.8549 34.9447 26.8631L36.1294 22.0034L36.1431 21.9474L36.1502 21.8903L36.5 19.0842L36.8498 21.8903L36.8569 21.9474L36.8706 22.0034L38.0553 26.8631C39.0284 30.8549 42.1451 33.9716 46.1369 34.9447L50.9966 36.1294L51.0526 36.1431L51.1097 36.1502L53.9158 36.5L51.1097 36.8498L51.0526 36.8569L50.9966 36.8706L46.1369 38.0553C42.1451 39.0284 39.0284 42.1451 38.0553 46.1369L36.8706 50.9966L36.8569 51.0526L36.8498 51.1097L36.5 53.9158L36.1502 51.1097L36.1431 51.0526L36.1294 50.9966L34.9447 46.1369C33.9716 42.1451 30.8549 39.0284 26.8631 38.0553L22.0034 36.8706L21.9474 36.8569L21.8903 36.8498Z" fill="#222222" stroke="#413831" stroke-width="2"/>
</svg>
