<svg width="126" height="126" viewBox="0 0 126 126" fill="none" xmlns="http://www.w3.org/2000/svg">
<ellipse cx="62.4747" cy="63.0002" rx="48.825" ry="48.3" fill="#413831"/>
<path fill-rule="evenodd" clip-rule="evenodd" d="M97.8098 31.2284C63.3204 24.0101 47.3711 16.2173 41.0158 10.5089C38.6133 8.35106 34.6427 6.64402 31.8376 8.2439C21.4728 14.1554 12.9489 22.922 7.33801 33.4721C6.34971 35.3304 6.76471 37.6093 8.32868 39.0178C14.6728 44.7315 24.6011 51.8302 36.2366 55.3965C56.6137 61.6422 72.3719 71.1465 79.1643 76.8491C84.6945 81.4921 98.8699 93.3356 110.839 98.456C112.835 99.3097 115.119 98.5575 116.283 96.7254C117.836 94.2821 119.224 91.7245 120.434 89.0683C121.743 86.1935 119.753 83.0085 116.717 82.1355C111.165 80.5391 104.651 77.4727 98.8966 71.9612C85.8553 59.4698 81.2365 55.9397 68.4669 49.9655C63.975 47.864 60.7606 46.569 58.3744 45.6076C53.977 43.8359 52.3919 43.1973 50.8068 40.7328C50.0822 38.7415 51.2958 35.3561 61.9462 37.7458C64.2301 38.2582 66.3301 38.6508 68.3903 39.0359C78.3387 40.8956 87.3572 42.5815 111.666 56.7543C115.309 58.8784 118.629 59.9791 121.645 60.2626C124.138 60.4969 125.937 58.2207 125.651 55.7334C125.119 51.102 124.084 46.6234 122.603 42.3533C121.775 39.9663 119.928 38.083 117.585 37.1364C111.767 34.7855 105.203 32.7758 97.8098 31.2284ZM33.6901 37.4741C39.392 37.4741 42.3865 36.0356 42.3865 32.5862C42.3865 29.1368 28.5265 24.9828 22.8245 24.9828C17.1225 24.9828 21.4638 30.1422 23.6375 32.3147C24.0551 32.732 24.4347 33.1228 24.789 33.4874C27.4314 36.2073 28.6622 37.4741 33.6901 37.4741Z" fill="#F6F6F6"/>
<path d="M63.033 0C81.5844 0 98.264 8.01003 109.798 20.7585C110.523 21.5597 109.579 22.7491 108.592 22.3094C102.461 19.5787 93.342 16.4473 80.4214 13.5776C70.7076 11.4201 64.4902 8.50716 60.6516 5.46838C58.0817 3.43396 59.7553 0 63.033 0Z" fill="#F6F6F6"/>
<path d="M63.033 126C77.2134 126 90.3001 121.32 100.831 113.421C101.408 112.988 101.334 112.109 100.703 111.761C90.3617 106.045 76.3023 96.2844 69.655 90.1552C54.841 76.4957 46.9708 75.0818 36.8106 73.2565C34.0438 72.7594 31.1071 72.2318 27.8141 71.4181C21.7707 69.9248 9.60065 63.652 1.82067 57.4969C1.18946 56.9976 0.242178 57.3809 0.181471 58.1834C0.0612187 59.7732 0 61.3795 0 63C0 67.8821 0.555608 72.6344 1.60707 77.1973C1.8085 78.0715 2.25635 78.8689 2.91756 79.4751C8.61885 84.7018 22.1303 93.6077 41.5691 96.944C66.4756 101.219 44.5578 108.054 17.0167 103.438C16.0931 103.283 15.4684 104.352 16.0939 105.049C27.6343 117.909 44.3883 126 63.033 126Z" fill="#F6F6F6"/>
</svg>
