<svg width="358" height="662" viewBox="0 0 358 662" fill="none" xmlns="http://www.w3.org/2000/svg">
<mask id="mask0_421_261" style="mask-type:alpha" maskUnits="userSpaceOnUse" x="0" y="0" width="358" height="662">
<path d="M0 0H358V662H0V0Z" fill="#DABF8E"/>
</mask>
<g mask="url(#mask0_421_261)">
<line x1="179.5" y1="2" x2="179.5" y2="662" stroke="#413831"/>
<line x1="357.98" y1="332.501" x2="-0.0195312" y2="332.501" stroke="#413831"/>
<line x1="283.566" y1="724.178" x2="73.4678" y2="-59.9203" stroke="#413831"/>
<line y1="-0.5" x2="811.759" y2="-0.5" transform="matrix(0.258819 -0.965926 -0.965926 -0.258819 73.9507 724.049)" stroke="#413831"/>
<line x1="381.499" y1="683.751" x2="-24.3802" y2="-19.252" stroke="#413831"/>
<line y1="-0.5" x2="811.759" y2="-0.5" transform="matrix(0.5 -0.866025 -0.866025 -0.5 -23.9321 683.501)" stroke="#413831"/>
<line x1="465.639" y1="619.353" x2="-108.361" y2="45.3531" stroke="#413831"/>
<line y1="-0.5" x2="811.759" y2="-0.5" transform="matrix(0.707107 -0.707107 -0.707107 -0.707107 -107.993 619)" stroke="#413831"/>
<line x1="530.251" y1="535.372" x2="-172.753" y2="129.493" stroke="#413831"/>
<line y1="-0.5" x2="811.759" y2="-0.5" transform="matrix(0.866025 -0.5 -0.5 -0.866025 -172.501 534.939)" stroke="#413831"/>
<line x1="570.92" y1="437.532" x2="-213.179" y2="227.434" stroke="#413831"/>
<line y1="-0.5" x2="811.759" y2="-0.5" transform="matrix(0.965926 -0.258819 -0.258819 -0.965926 -213.049 437.049)" stroke="#413831"/>
<circle cx="179.5" cy="330.5" r="45.5" fill="#941F1F"/>
<path d="M246.823 435.886C234.55 438.406 235.863 446.896 248.324 445.589L778.721 370.682L774.594 344L246.823 435.886Z" fill="#413831"/>
<path d="M246.823 435.886C234.55 438.406 235.863 446.896 248.324 445.589L778.721 370.682L774.594 344L246.823 435.886Z" fill="url(#paint0_linear_421_261)"/>
<path d="M106.898 319.886C119.172 322.406 117.859 330.896 105.397 329.589L-425 254.682L-420.872 228L106.898 319.886Z" fill="#413831"/>
<path d="M106.898 319.886C119.172 322.406 117.859 330.896 105.397 329.589L-425 254.682L-420.872 228L106.898 319.886Z" fill="url(#paint1_linear_421_261)"/>
<path d="M73.7954 253.985C78.1791 234.422 98.0669 222.532 117.374 227.931L139.45 234.104C157.217 239.072 168.078 256.979 164.272 275.031L159.15 299.325C155.623 316.053 138.852 326.457 122.298 322.185L94.8178 315.093C76.525 310.371 65.2801 291.985 69.4112 273.55L73.7954 253.985Z" fill="#413831"/>
<path d="M81.397 257.858C85.1524 241.085 102.205 230.89 118.758 235.523L147.937 243.689C163.161 247.95 172.466 263.294 169.208 278.763L163.621 305.287C160.096 322.02 143.319 332.427 126.762 328.15L97.1167 320.492C81.4425 316.444 71.8077 300.689 75.3446 284.891L81.397 257.858Z" fill="#F6F6F6"/>
<path d="M103.161 264.784C104.058 272.551 98.0581 277.231 94.9463 278.6C94.1994 278.849 92.8551 279.646 93.4526 280.84C97.3361 283.828 93.8259 286.815 94.9463 289.056C103.535 288.682 101.668 298.018 105.029 300.258C115.111 302.499 125.193 313.328 129.674 305.486C134.155 297.644 141.623 307.353 141.25 304.739C140.877 302.125 146.851 302.872 146.104 300.258C145.358 297.644 146.851 296.524 150.959 294.283C156.187 288.309 144.611 291.67 148.345 278.6C152.079 265.53 142.744 260.302 142.37 262.17C141.997 264.037 137.516 265.904 136.769 261.796C136.022 257.689 124.82 252.087 118.845 255.822C112.87 259.556 111.377 253.954 108.763 259.182C106.149 264.41 103.161 260.676 103.161 264.784Z" fill="#413831"/>
<mask id="mask1_421_261" style="mask-type:alpha" maskUnits="userSpaceOnUse" x="93" y="254" width="60" height="55">
<path d="M103.161 264.784C104.058 272.551 98.0581 277.231 94.9463 278.6C94.1994 278.849 92.8551 279.646 93.4526 280.84C97.3361 283.828 93.8259 286.815 94.9463 289.056C103.535 288.682 101.668 298.018 105.029 300.258C115.111 302.499 125.193 313.328 129.674 305.486C134.155 297.644 141.623 307.353 141.25 304.739C140.877 302.125 146.851 302.872 146.104 300.258C145.358 297.644 146.851 296.524 150.959 294.283C156.187 288.309 144.611 291.67 148.345 278.6C152.079 265.53 142.744 260.302 142.37 262.17C141.997 264.037 137.516 265.904 136.769 261.796C136.022 257.689 124.82 252.087 118.845 255.822C112.87 259.556 111.377 253.954 108.763 259.182C106.149 264.41 103.161 260.676 103.161 264.784Z" fill="#413831"/>
</mask>
<g mask="url(#mask1_421_261)">
<path d="M99 274.708C101.09 276.547 105.427 282.276 106.054 290.474C106.681 298.673 112.847 305.19 115.851 307.423M104.486 262.489C106.315 263.54 110.13 266.982 110.757 272.343C111.541 279.044 117.419 278.65 119.378 285.745C121.338 292.839 124.865 305.058 130.743 308.212M117.027 255C119.901 257.891 125.962 265.012 127.216 270.372C128.784 277.073 131.919 287.321 138.973 292.445C144.616 296.545 145.505 305.19 145.243 309M137.014 258.942C137.405 261.307 139.051 266.904 142.5 270.372C146.811 274.708 148.378 279.832 149.946 285.745C151.2 290.474 155.171 295.336 157 297.175" stroke="#F6F6F6"/>
</g>
<path d="M284.205 367.985C279.821 348.422 259.933 336.532 240.626 341.931L218.55 348.104C200.783 353.072 189.922 370.979 193.728 389.031L198.85 413.325C202.377 430.053 219.148 440.457 235.702 436.185L263.182 429.093C281.475 424.371 292.72 405.985 288.589 387.55L284.205 367.985Z" fill="#413831"/>
<path d="M276.603 371.858C272.848 355.085 255.795 344.89 239.242 349.523L210.063 357.689C194.839 361.95 185.534 377.294 188.792 392.763L194.379 419.287C197.904 436.02 214.681 446.427 231.238 442.15L260.883 434.492C276.557 430.444 286.192 414.689 282.655 398.891L276.603 371.858Z" fill="#F6F6F6"/>
<path d="M254.839 378.784C253.942 386.551 259.942 391.231 263.054 392.6C263.801 392.849 265.145 393.646 264.547 394.84C260.664 397.828 264.174 400.815 263.054 403.056C254.465 402.682 256.332 412.018 252.971 414.258C242.889 416.499 232.807 427.328 228.326 419.486C223.845 411.644 216.377 421.353 216.75 418.739C217.123 416.125 211.149 416.872 211.896 414.258C212.642 411.644 211.149 410.524 207.041 408.283C201.813 402.309 213.389 405.67 209.655 392.6C205.921 379.53 215.256 374.302 215.63 376.17C216.003 378.037 220.484 379.904 221.231 375.796C221.978 371.689 233.18 366.087 239.155 369.822C245.13 373.556 246.623 367.954 249.237 373.182C251.851 378.41 254.839 374.676 254.839 378.784Z" fill="#413831"/>
<mask id="mask2_421_261" style="mask-type:alpha" maskUnits="userSpaceOnUse" x="205" y="368" width="60" height="55">
<path d="M254.839 378.784C253.942 386.551 259.942 391.231 263.054 392.6C263.801 392.849 265.145 393.646 264.547 394.84C260.664 397.828 264.174 400.815 263.054 403.056C254.465 402.682 256.332 412.018 252.971 414.258C242.889 416.499 232.807 427.328 228.326 419.486C223.845 411.644 216.377 421.353 216.75 418.739C217.123 416.125 211.149 416.872 211.896 414.258C212.642 411.644 211.149 410.524 207.041 408.283C201.813 402.309 213.389 405.67 209.655 392.6C205.921 379.53 215.256 374.302 215.63 376.17C216.003 378.037 220.484 379.904 221.231 375.796C221.978 371.689 233.18 366.087 239.155 369.822C245.13 373.556 246.623 367.954 249.237 373.182C251.851 378.41 254.839 374.676 254.839 378.784Z" fill="#413831"/>
</mask>
<g mask="url(#mask2_421_261)">
<path d="M259 388.708C256.91 390.547 252.573 396.276 251.946 404.474C251.319 412.673 245.153 419.19 242.149 421.423M253.514 376.489C251.685 377.54 247.87 380.982 247.243 386.343C246.459 393.044 240.581 392.65 238.622 399.745C236.662 406.839 233.135 419.058 227.257 422.212M240.973 369C238.099 371.891 232.038 379.012 230.784 384.372C229.216 391.073 226.081 401.321 219.027 406.445C213.384 410.545 212.495 419.19 212.757 423M220.986 372.942C220.595 375.307 218.949 380.904 215.5 384.372C211.189 388.708 209.622 393.832 208.054 399.745C206.8 404.474 202.829 409.336 201 411.175" stroke="#F6F6F6"/>
</g>
<path d="M213.586 341.697C202.296 347.131 205.638 355.045 217.405 350.742L713.572 148.873L703.068 124L213.586 341.697Z" fill="url(#paint2_linear_421_261)"/>
<path d="M140.136 225.697C151.426 231.131 148.084 239.045 136.317 234.742L-359.85 32.8733L-349.346 8.00022L140.136 225.697Z" fill="url(#paint3_linear_421_261)"/>
</g>
<defs>
<linearGradient id="paint0_linear_421_261" x1="320.722" y1="466" x2="256.222" y2="393.5" gradientUnits="userSpaceOnUse">
<stop stop-color="#CF993E"/>
<stop offset="1" stop-color="#413831"/>
</linearGradient>
<linearGradient id="paint1_linear_421_261" x1="33" y1="350" x2="97.5" y2="277.5" gradientUnits="userSpaceOnUse">
<stop stop-color="#CF993E"/>
<stop offset="1" stop-color="#413831"/>
</linearGradient>
<linearGradient id="paint2_linear_421_261" x1="205.722" y1="355" x2="435.722" y2="186.5" gradientUnits="userSpaceOnUse">
<stop stop-color="#CF993E"/>
<stop offset="1" stop-color="#413831"/>
</linearGradient>
<linearGradient id="paint3_linear_421_261" x1="148" y1="239" x2="-82" y2="70.5" gradientUnits="userSpaceOnUse">
<stop stop-color="#CF993E"/>
<stop offset="1" stop-color="#413831"/>
</linearGradient>
</defs>
</svg>
