<svg width="358" height="662" viewBox="0 0 358 662" fill="none" xmlns="http://www.w3.org/2000/svg">
<mask id="mask0_519_252" style="mask-type:alpha" maskUnits="userSpaceOnUse" x="0" y="0" width="358" height="662">
<path d="M0 0H358V662H0V0Z" fill="#222222"/>
</mask>
<g mask="url(#mask0_519_252)">
<path fill-rule="evenodd" clip-rule="evenodd" d="M92.536 578.988C89.929 572.926 86.146 567.236 82.028 562.594C77.3477 557.319 72.0522 552.64 66.7522 547.957C63.5242 545.105 60.2946 542.251 57.2013 539.261C48.0398 530.373 39.7486 520.858 33.25 509.922C32.8231 509.204 32.4039 508.479 31.9928 507.748C32.0131 508.591 32.046 509.432 32.0913 510.272C34.0816 547.204 59.9841 581.843 94.9318 594.036C95.1868 594.125 95.4422 594.212 95.6982 594.299L95.8619 595.073L95.8754 595.027C96.2789 596.772 96.6249 598.219 96.9383 599.529C98.0391 604.132 98.7389 607.059 100.116 615.309C101.31 623.104 102.819 630.907 105.144 638.447C98.796 626.318 90.5079 611.834 83.8442 604.817C79.4182 600.134 74.4043 596.045 69.3962 591.961C63.6016 587.235 57.8148 582.516 52.9556 576.89C52.4879 576.349 52.0287 575.799 51.579 575.24C51.6537 575.959 51.7396 576.676 51.8365 577.391C53.222 587.619 56.8651 597.42 62.5123 606.08C68.5384 615.303 75.547 623.846 83.4153 631.558C91.7255 640.051 107.369 652.408 112.939 656.74C113.23 656.966 113.494 657.171 113.727 657.351C116.253 660.994 119.37 664.721 122.351 668.286L122.352 668.287C124.851 671.276 127.255 674.15 129.134 676.764C137.82 688.848 142.553 713.999 144.443 726.16C144.495 726.497 144.706 726.712 144.96 726.811C145.295 726.943 145.704 726.873 145.915 726.617C145.921 726.61 145.927 726.603 145.933 726.595C146.033 726.461 146.081 726.281 146.044 726.057L146.032 726.055C145.192 720.651 143.377 711.191 141.037 701.989C142.89 695.528 147.628 678.381 148.646 668.591C150.715 648.811 144.094 629.104 134.952 611.384C134.685 610.866 134.416 610.349 134.144 609.835C133.991 610.399 133.845 610.963 133.704 611.528C128.46 632.558 131.461 654.775 134.788 676.247C135.282 679.432 136.111 683.885 136.978 688.317C135.753 684.889 134.471 681.955 133.172 679.892C130.908 676.289 127.541 672.366 124.134 668.396C120.225 663.842 116.264 659.227 113.856 654.965C113.523 654.374 113.199 653.779 112.883 653.181C115.849 644.169 126.374 611.095 126.482 595.305C126.489 592.348 126.481 589.786 126.474 587.458C126.447 578.835 126.43 573.437 127.232 563.175C127.283 562.519 127.338 561.843 127.396 561.144C126.953 561.668 126.517 562.192 126.089 562.715C109.534 582.973 104.227 603.422 104.378 614.155C104.554 623.468 107.64 637.676 109.86 646.772C105.649 636.738 103.363 625.946 101.717 615.206C100.712 609.174 99.8967 606.006 99.1071 602.939C98.3509 600.001 97.6186 597.157 96.7669 591.979C99.5187 582.455 107.703 553.23 109.412 536.806C112.79 504.392 101.77 472.101 86.7281 443.139C86.4606 442.624 86.1919 442.11 85.9219 441.597C85.7699 442.158 85.6217 442.719 85.4771 443.281C76.622 477.685 81.5071 514.043 86.9597 549.208C88.1493 556.88 90.534 569.093 92.536 578.988ZM103.11 637.106C105.015 640.702 106.77 644.141 108.288 647.179C108.929 648.716 109.616 650.236 110.352 651.737C110.77 652.592 111.247 653.459 111.772 654.336C109.659 652.678 106.854 650.452 103.771 647.942C97.1611 642.561 89.3177 635.909 84.2554 630.736L84.2468 630.727L84.238 630.718C76.4307 623.066 69.4763 614.59 63.4969 605.438C58.2728 597.427 54.7932 588.422 53.2656 579.01C57.3548 583.496 61.9871 587.415 66.6365 591.224C67.3096 591.776 67.9828 592.325 68.6549 592.873C73.6692 596.962 78.6201 601 82.99 605.624L82.9919 605.626C89.184 612.147 96.8971 625.376 103.11 637.106ZM108.243 536.685C111.541 505.038 100.976 473.426 86.2921 444.855C77.9501 478.614 82.7329 514.277 88.1212 549.027C89.2526 556.324 91.4731 567.766 93.415 577.403C94.3851 582.217 95.2844 586.574 95.9411 589.727L96.0463 590.232C96.2055 589.676 96.3766 589.076 96.5583 588.435C97.6658 584.526 99.1638 579.11 100.726 573.076C103.856 560.983 107.222 546.494 108.243 536.685ZM139.218 693.556C139.678 695.831 140.111 697.94 140.472 699.677C141.131 697.334 141.976 694.257 142.854 690.863C144.784 683.401 146.851 674.489 147.477 668.47C149.465 649.463 143.296 630.443 134.526 613.132C129.791 633.508 132.689 655.023 135.949 676.066C136.647 680.558 138.018 687.609 139.218 693.556ZM56.3829 540.104L56.3843 540.106C59.4984 543.117 62.7557 545.995 65.9883 548.851C67.0208 549.763 68.0508 550.673 69.0729 551.585C73.3095 555.363 77.4308 559.184 81.1488 563.375C88.1956 571.317 94.1605 582.29 94.8716 592.768C61.3095 580.846 36.2741 547.907 33.4162 512.457C39.7955 522.703 47.7181 531.699 56.3829 540.104ZM125.298 587.474C125.273 579.327 125.256 574.022 125.931 564.786C110.371 584.415 105.411 603.944 105.553 614.135C105.689 621.32 107.597 631.55 109.496 640.053C110.442 644.291 111.38 648.074 112.081 650.797C112.133 650.999 112.184 651.196 112.233 651.386C112.523 650.496 112.855 649.466 113.22 648.316C114.555 644.119 116.335 638.332 118.119 631.974C121.701 619.204 125.245 604.308 125.307 595.299C125.314 592.356 125.306 589.801 125.298 587.477L125.298 587.474Z" fill="#413831"/>
<path fill-rule="evenodd" clip-rule="evenodd" d="M111.271 87.2047C108.264 92.3393 104.245 97.0105 100.043 100.706C95.2678 104.906 90.0082 108.504 84.7441 112.105C81.538 114.298 78.3303 116.492 75.2293 118.824C66.0417 125.758 57.5631 133.35 50.5306 142.414C50.0686 143.009 49.6129 143.611 49.1636 144.219C49.2755 143.467 49.3986 142.718 49.5326 141.971C55.4236 109.143 82.4584 81.0272 115.09 74.0053C115.328 73.9541 115.566 73.904 115.805 73.855L116.037 73.1808L116.044 73.223C116.6 71.7067 117.07 70.4505 117.497 69.3123C118.994 65.3156 119.946 62.7749 122.097 55.5452C124.032 48.7025 126.251 41.8867 129.171 35.3984C122.14 45.5458 113.111 57.5851 106.367 63.1237C101.885 66.822 96.9433 69.9231 92.0071 73.0206C86.2957 76.6046 80.592 80.1837 75.6175 84.6775C75.1386 85.11 74.6665 85.551 74.2019 86.0014C74.3487 85.3661 74.5054 84.7338 74.6717 84.1046C77.0498 75.1063 81.4006 66.7406 87.4181 59.619C93.8372 52.0358 101.06 45.1712 108.959 39.1455C117.341 32.4699 132.715 23.1529 138.182 19.8958C138.468 19.7257 138.726 19.5721 138.956 19.4362C141.621 16.4576 144.825 13.4691 147.889 10.611L147.89 10.61C150.46 8.21349 152.931 5.90878 154.903 3.77861C164.021 -6.06827 171.056 -28.0493 174.1 -38.7217C174.184 -39.0177 174.397 -39.1864 174.635 -39.2473C174.95 -39.3277 175.308 -39.2195 175.468 -38.9674C175.473 -38.9601 175.477 -38.9527 175.482 -38.9451C175.557 -38.8146 175.58 -38.6482 175.522 -38.4517L175.51 -38.4507C174.157 -33.7083 171.48 -25.4451 168.362 -17.4702C169.301 -11.4827 171.634 4.3894 171.455 13.2637C171.105 31.1948 162.987 48.0936 152.834 62.9345C152.537 63.3682 152.239 63.8002 151.939 64.2304C151.865 63.7091 151.796 63.1877 151.733 62.6662C149.381 43.2634 154.539 23.7155 159.905 4.87083C160.702 2.07523 161.94 -1.81709 163.208 -5.68675C161.73 -2.75545 160.257 -0.273254 158.865 1.42914C156.438 4.40088 152.988 7.5372 149.497 10.7107C145.493 14.3511 141.435 18.0405 138.805 21.5865C138.441 22.078 138.085 22.574 137.736 23.0741C139.387 31.4694 145.126 62.2381 143.465 76.3807C143.142 79.0272 142.85 81.3194 142.584 83.4015C141.601 91.1154 140.985 95.9439 140.56 105.216C140.533 105.81 140.507 106.421 140.481 107.052C140.143 106.534 139.811 106.017 139.486 105.501C126.926 85.5303 124.452 66.6404 125.782 57.0522C126.975 48.7372 131.319 36.3665 134.318 28.4734C129.433 36.9838 126.186 46.3873 123.518 55.8152C121.947 61.1012 120.865 63.8458 119.817 66.5026C118.813 69.0471 117.841 71.5112 116.503 76.05C117.906 84.8792 121.978 111.943 121.679 126.831C121.095 156.214 107.64 183.885 90.9557 208.129C90.659 208.56 90.3614 208.99 90.0627 209.419C89.9891 208.9 89.9189 208.381 89.852 207.863C85.7564 176.089 94.174 144.096 102.967 113.234C104.885 106.501 108.378 95.8366 111.271 87.2047ZM127.201 36.3719C129.306 33.3659 131.259 30.4836 132.956 27.9338C133.701 26.6301 134.484 25.3461 135.31 24.0848C135.78 23.3665 136.303 22.6432 136.87 21.9169C134.795 23.166 132.037 24.8454 128.998 26.7485C122.485 30.8282 114.726 35.9081 109.62 39.9746L109.611 39.9815L109.602 39.9882C101.764 45.9672 94.5971 52.7787 88.2277 60.3031C82.6611 66.8912 78.5452 74.5621 76.1308 82.8151C80.2894 79.2555 84.8708 76.2643 89.4555 73.3725C90.1193 72.9539 90.7828 72.5375 91.4453 72.1217C96.3876 69.02 101.267 65.9575 105.693 62.3061L105.695 62.3046C111.962 57.1579 120.336 46.1779 127.201 36.3719ZM120.619 126.81C120.049 155.497 107.076 182.611 90.7566 206.544C87.0482 175.406 95.2971 144.023 103.986 113.525C105.811 107.121 109.071 97.1287 111.881 88.7212C113.285 84.5209 114.575 80.7221 115.513 77.9733L115.664 77.5332C115.744 78.0484 115.831 78.6047 115.922 79.1986C116.478 82.8193 117.216 87.8333 117.942 93.4069C119.398 104.577 120.798 117.917 120.619 126.81ZM165.796 -10.1264C166.461 -12.111 167.084 -13.9502 167.599 -15.4643C167.929 -13.2944 168.342 -10.4467 168.75 -7.31186C169.647 -0.418762 170.505 7.78613 170.396 13.2424C170.059 30.4728 162.422 46.8068 152.648 61.3221C150.678 42.5615 155.665 23.63 160.925 5.16145C162.049 1.21906 164.06 -4.93825 165.796 -10.1264ZM74.5908 117.978L74.5923 117.977C77.7141 115.629 80.9493 113.416 84.16 111.22C85.1855 110.518 86.2085 109.819 87.2246 109.117C91.4364 106.207 95.5497 103.246 99.3432 99.9099C106.533 93.5865 113.092 84.4307 114.895 75.1327C83.5335 82.067 57.4639 108.758 50.9613 140.164C57.8104 131.704 65.9013 124.536 74.5908 117.978ZM141.534 83.2564C140.605 90.5445 140 95.2899 139.576 103.631C127.835 84.3329 125.57 66.3043 126.831 57.2003C127.752 50.7859 130.598 41.8438 133.244 34.4452C134.562 30.7585 135.823 27.4777 136.753 25.1185C136.822 24.9434 136.89 24.7734 136.955 24.6087C137.115 25.4371 137.297 26.3959 137.496 27.4653C138.223 31.3701 139.173 36.7467 140.061 42.635C141.846 54.4611 143.359 68.1858 142.412 76.2548C142.091 78.8898 141.8 81.1754 141.535 83.2542L141.534 83.2564Z" fill="#413831"/>
<path fill-rule="evenodd" clip-rule="evenodd" d="M248.332 59.5879C250.573 63.4127 253.566 66.8924 256.696 69.645C260.253 72.7735 264.171 75.4536 268.093 78.136C270.481 79.7697 272.87 81.4043 275.18 83.1414C282.024 88.3067 288.34 93.9621 293.578 100.713C293.923 101.157 294.262 101.605 294.597 102.058C294.513 101.498 294.422 100.94 294.322 100.384C289.934 75.9301 269.795 54.9863 245.488 49.7557C245.311 49.7175 245.133 49.6802 244.955 49.6437L244.782 49.1415L244.777 49.1729C244.363 48.0434 244.013 47.1076 243.695 46.2598C242.58 43.2827 241.871 41.3901 240.268 36.0046C238.827 30.9074 237.174 25.8304 234.999 20.9972C240.236 28.556 246.962 37.5242 251.985 41.6499C255.324 44.4048 259.005 46.7148 262.682 49.0221C266.937 51.6919 271.185 54.358 274.891 57.7054C275.248 58.0276 275.599 58.3561 275.946 58.6916C275.836 58.2184 275.719 57.7474 275.596 57.2787C273.824 50.5758 270.583 44.3442 266.101 39.0392C261.319 33.3904 255.939 28.2769 250.055 23.7884C243.811 18.8158 232.359 11.8754 228.286 9.44922C228.073 9.32248 227.881 9.20805 227.71 9.10687C225.725 6.88809 223.338 4.66191 221.055 2.53293L221.055 2.53214C219.141 0.746979 217.3 -0.969803 215.831 -2.55656C209.039 -9.89157 203.798 -26.2654 201.531 -34.2153C201.468 -34.4357 201.309 -34.5614 201.132 -34.6068C200.898 -34.6667 200.631 -34.5861 200.512 -34.3983C200.508 -34.3928 200.505 -34.3873 200.502 -34.3817C200.446 -34.2845 200.428 -34.1605 200.472 -34.0141L200.48 -34.0134C201.488 -30.4807 203.482 -24.3255 205.805 -18.3849C205.105 -13.9248 203.368 -2.10159 203.501 4.50888C203.762 17.8659 209.809 30.4539 217.372 41.509C217.593 41.832 217.815 42.1538 218.039 42.4743C218.094 42.086 218.145 41.6976 218.192 41.3091C219.944 26.8559 216.102 12.2945 212.105 -1.74297C211.511 -3.82542 210.589 -6.72484 209.644 -9.60738C210.745 -7.42383 211.843 -5.57483 212.879 -4.3067C214.687 -2.09303 217.257 0.243225 219.857 2.60719C222.84 5.31895 225.864 8.06715 227.822 10.7086C228.093 11.0748 228.359 11.4442 228.619 11.8167C227.389 18.0704 223.114 40.9902 224.351 51.5251C224.591 53.4965 224.809 55.204 225.007 56.7549C225.74 62.501 226.199 66.0979 226.515 73.005C226.535 73.4468 226.555 73.9022 226.574 74.3725C226.826 73.9868 227.073 73.6016 227.315 73.2169C236.671 58.3407 238.514 44.2695 237.524 37.1272C236.634 30.9333 233.399 21.7183 231.165 15.8387C234.804 22.1782 237.223 29.1828 239.21 36.2057C240.38 40.1433 241.186 42.1878 241.967 44.1669C242.714 46.0622 243.438 47.8978 244.435 51.2788C243.39 57.8557 240.357 78.0158 240.58 89.1056C241.014 110.993 251.037 131.605 263.465 149.665C263.686 149.986 263.908 150.306 264.131 150.626C264.186 150.24 264.238 149.853 264.288 149.467C267.339 125.798 261.068 101.967 254.518 78.9777C253.089 73.9616 250.487 66.0179 248.332 59.5879ZM236.466 21.7223C234.898 19.4831 233.443 17.3362 232.179 15.4368C231.625 14.4656 231.041 13.5092 230.426 12.5696C230.076 12.0345 229.686 11.4957 229.263 10.9547C230.81 11.8852 232.864 13.1362 235.127 14.5538C239.979 17.5928 245.759 21.3768 249.563 24.406L249.569 24.4112L249.576 24.4162C255.414 28.8699 260.753 33.9438 265.498 39.5488C269.644 44.4563 272.71 50.1704 274.509 56.3181C271.411 53.6665 267.998 51.4384 264.583 49.2843C264.089 48.9725 263.594 48.6623 263.101 48.3526C259.419 46.0421 255.784 43.7608 252.488 41.0409L252.486 41.0397C247.818 37.2059 241.58 29.0268 236.466 21.7223ZM241.369 89.0899C241.793 110.459 251.457 130.657 263.614 148.484C266.376 125.289 260.232 101.912 253.759 79.194C252.4 74.4236 249.971 66.9804 247.878 60.7176C246.832 57.5888 245.872 54.759 245.172 52.7114L245.06 52.3836C245 52.7674 244.936 53.1818 244.868 53.6242C244.454 56.3212 243.904 60.0562 243.363 64.208C242.279 72.5284 241.236 82.4659 241.369 89.0899ZM207.716 -12.9145C207.221 -14.3928 206.757 -15.7629 206.373 -16.8907C206.128 -15.2743 205.82 -13.1531 205.516 -10.8179C204.848 -5.68323 204.209 0.42865 204.29 4.49301C204.541 17.328 210.23 29.4954 217.511 40.3079C218.978 26.333 215.263 12.2308 211.345 -1.52649C210.508 -4.4632 209.01 -9.0498 207.716 -12.9145ZM275.656 82.5112L275.655 82.5104C273.329 80.7616 270.919 79.113 268.528 77.477C267.764 76.9544 267.002 76.4331 266.245 75.9102C263.107 73.7427 260.043 71.5373 257.218 69.0521C251.862 64.3418 246.976 57.5216 245.633 50.5955C268.994 55.7608 288.414 75.6429 293.258 99.0376C288.156 92.7358 282.129 87.3964 275.656 82.5112ZM225.789 56.6469C226.482 62.0758 226.932 65.6107 227.248 71.8236C235.994 57.4487 237.681 44.0191 236.742 37.2375C236.055 32.4594 233.935 25.7983 231.965 20.2871C230.983 17.5409 230.044 15.097 229.351 13.3396C229.299 13.2092 229.249 13.0825 229.2 12.9598C229.081 13.577 228.945 14.2912 228.797 15.0877C228.256 17.9965 227.548 22.0015 226.886 26.3877C225.557 35.1971 224.43 45.4207 225.135 51.4313C225.374 53.3941 225.592 55.0967 225.789 56.6452L225.789 56.6469Z" fill="#413831"/>
<path fill-rule="evenodd" clip-rule="evenodd" d="M265.605 576.602C266.969 571.249 269.354 566.049 272.153 561.673C275.334 556.699 279.101 552.137 282.872 547.572C285.169 544.792 287.467 542.01 289.634 539.133C296.049 530.586 301.662 521.634 305.607 511.741C305.866 511.092 306.118 510.438 306.362 509.779C306.456 510.479 306.538 511.179 306.611 511.88C309.791 542.68 292.897 574.71 265.591 589.359C265.391 589.466 265.192 589.572 264.991 589.677L264.957 590.338L264.94 590.302C264.834 591.798 264.737 593.039 264.649 594.164C264.34 598.115 264.144 600.626 264.083 607.628C264.115 614.23 263.887 620.881 262.949 627.419C266.614 616.56 271.575 603.5 276.168 596.825C279.216 592.374 282.828 588.338 286.436 584.306C290.61 579.641 294.779 574.983 298.062 569.695C298.378 569.186 298.686 568.672 298.985 568.151C299.017 568.755 299.04 569.359 299.053 569.963C299.244 578.602 297.512 587.183 293.974 595.083C290.196 603.497 285.516 611.477 280.017 618.883C274.255 626.992 262.933 639.255 258.893 643.565C258.682 643.79 258.491 643.994 258.321 644.174C256.709 647.516 254.618 651.006 252.619 654.343L252.618 654.344C250.942 657.142 249.33 659.833 248.118 662.24C242.514 673.368 241.886 694.785 241.912 705.089C241.913 705.374 241.767 705.579 241.57 705.695C241.311 705.847 240.963 705.843 240.755 705.659C240.749 705.654 240.743 705.649 240.737 705.643C240.637 705.546 240.574 705.403 240.575 705.213L240.585 705.209C240.573 700.631 240.838 692.571 241.571 684.655C239.194 679.555 233.035 665.994 230.914 658.032C226.619 641.945 229.519 624.783 234.763 608.934C234.916 608.471 235.071 608.009 235.228 607.548C235.428 607.994 235.624 608.442 235.814 608.891C242.898 625.596 243.32 644.361 243.375 662.551C243.382 665.25 243.278 669.04 243.141 672.819C243.706 669.824 244.383 667.231 245.187 665.354C246.588 662.08 248.86 658.395 251.159 654.667C253.796 650.39 256.469 646.056 257.903 642.217C258.101 641.685 258.292 641.151 258.475 640.615C254.844 633.55 241.818 607.575 239.666 594.531C239.274 592.087 238.946 589.967 238.647 588.042C237.543 580.907 236.851 576.441 234.848 568.06C234.719 567.524 234.586 566.972 234.446 566.402C234.881 566.777 235.31 567.153 235.733 567.53C252.069 582.119 259.13 598.335 260.408 607.231C261.48 614.955 260.784 627.108 260.137 634.92C262.308 626.072 262.788 616.849 262.746 607.753C262.789 602.633 263.049 599.907 263.301 597.267C263.543 594.739 263.777 592.291 263.804 587.898C260.284 580.382 249.697 557.284 246.138 543.926C239.108 517.562 244.002 489.419 252.656 463.503C252.81 463.042 252.965 462.582 253.121 462.123C253.32 462.567 253.516 463.011 253.709 463.457C265.528 490.751 266.239 521.455 266.325 551.247C266.344 557.747 265.968 568.158 265.605 576.602ZM264.456 626.045C263.351 629.267 262.348 632.341 261.491 635.051C261.161 636.406 260.792 637.753 260.379 639.09C260.145 639.852 259.864 640.631 259.544 641.425C261.075 639.777 263.104 637.57 265.325 635.092C270.088 629.778 275.705 623.253 279.215 618.313L279.221 618.305L279.227 618.296C284.683 610.948 289.327 603.03 293.076 594.681C296.349 587.373 298.05 579.472 298.083 571.489C295.287 575.733 291.969 579.579 288.622 583.337C288.137 583.881 287.652 584.423 287.168 584.964C283.556 589.001 279.99 592.987 276.98 597.381L276.979 597.383C272.71 603.585 268.061 615.533 264.456 626.045ZM247.089 543.672C240.226 517.933 244.832 490.411 253.241 464.866C264.551 491.692 265.256 521.809 265.341 551.25C265.359 557.432 265.018 567.184 264.671 575.406C264.498 579.514 264.324 583.235 264.193 585.928L264.172 586.359C263.968 585.92 263.748 585.446 263.514 584.94C262.087 581.853 260.141 577.569 258.06 572.783C253.891 563.193 249.215 551.651 247.089 543.672ZM241.973 677.444C241.89 679.386 241.807 681.186 241.736 682.67C240.885 680.818 239.784 678.384 238.614 675.692C236.043 669.773 233.169 662.674 231.865 657.778C227.737 642.32 230.353 625.786 235.343 610.325C241.922 626.555 242.337 644.726 242.391 662.554C242.401 666.36 242.189 672.37 241.973 677.444ZM290.421 539.723L290.42 539.725C288.238 542.621 285.921 545.427 283.621 548.211C282.886 549.101 282.153 549.988 281.427 550.875C278.418 554.553 275.509 558.252 272.982 562.203C268.192 569.692 264.694 579.545 265.475 588.303C291.671 574.058 308.07 543.548 305.8 513.859C301.864 523.166 296.488 531.64 290.421 539.723ZM239.622 587.901C238.578 581.16 237.899 576.771 236.134 569.222C251.566 583.421 258.22 598.922 259.434 607.368C260.26 613.327 260.019 622.036 259.56 629.316C259.331 632.944 259.05 636.195 258.826 638.539C258.809 638.713 258.793 638.882 258.777 639.045C258.422 638.347 258.013 637.539 257.56 636.636C255.908 633.339 253.68 628.787 251.374 623.762C246.743 613.67 241.866 601.815 240.637 594.373C240.247 591.94 239.92 589.826 239.622 587.903L239.622 587.901Z" fill="#413831"/>
</g>
<path d="M89.9908 392.242C89.405 391.531 88.6623 390.626 87.8581 389.638C85.9822 387.334 83.7783 384.59 82.4459 382.806C76.1851 374.372 69.9606 365.636 67.3883 355.622C75.2142 361.146 82.3093 368.029 85.8421 376.809C86.9439 379.56 88.0818 383.898 88.9478 387.574C89.3766 389.394 89.7369 391.043 89.9908 392.242Z" stroke="#413831"/>
<path d="M118.121 412.823C118.121 412.823 118.121 412.823 118.121 412.823C105.02 409.616 95.2945 400.169 87.577 389.421C87.5765 389.42 87.5761 389.42 87.5756 389.419C87.561 389.399 87.5464 389.378 87.5318 389.358L87.5319 389.358L87.5262 389.35C87.5262 389.35 87.5262 389.35 87.5262 389.35C87.5264 389.351 87.5283 389.354 87.5308 389.359C87.5342 389.366 87.5388 389.377 87.5418 389.393C87.5449 389.409 87.5456 389.426 87.5443 389.441C87.5443 389.442 87.5441 389.444 87.544 389.445C87.5429 389.457 87.5406 389.468 87.5374 389.478C87.5294 389.505 87.5186 389.519 87.5126 389.525L118.121 412.823Z" stroke="#413831"/>
<path d="M84.4919 391.11C87.4562 392.081 90.5757 393.946 92.358 396.443C82.0733 398.304 70.8972 393.756 64.7401 385.337C67.8325 386.887 71.1041 388.056 74.4835 388.817C75.7665 389.132 77.0689 389.388 78.3576 389.642C78.7576 389.721 79.1563 389.799 79.5526 389.879C81.2361 390.218 82.8901 390.585 84.4919 391.11Z" stroke="#413831"/>
<path d="M96.7542 407.594L96.7542 407.594L96.7431 407.592C93.5089 406.961 90.3533 405.978 87.3326 404.661C84.8558 403.576 82.6213 402.017 80.7519 400.077C82.3869 400.463 84.0503 400.661 85.6952 400.829C86.0065 400.86 86.3168 400.891 86.6263 400.922C88.5237 401.109 90.3857 401.293 92.202 401.706C94.8342 402.348 98.9622 404.41 102.479 406.347C104.228 407.31 105.808 408.232 106.952 408.914C106.966 408.922 106.98 408.93 106.994 408.938C106.285 408.876 105.44 408.797 104.525 408.703C101.962 408.439 98.8825 408.06 96.7542 407.594Z" stroke="#413831"/>
<path d="M106 399.741L106 399.741L106.005 399.751C107.079 401.646 108.35 404.475 109.358 406.847C109.718 407.693 110.043 408.477 110.312 409.136C110.299 409.125 110.287 409.114 110.274 409.103C109.286 408.211 107.939 406.973 106.505 405.586C103.619 402.796 100.439 399.457 99.0704 397.127L99.0702 397.127C98.1009 395.479 97.348 393.713 96.5811 391.913C96.4772 391.669 96.373 391.425 96.268 391.18C95.6147 389.657 94.9309 388.123 94.0829 386.671C96.4939 387.884 98.6481 389.562 100.419 391.613C102.567 394.113 104.439 396.838 106 399.741Z" stroke="#413831"/>
<path d="M125.35 284.961C127.868 289.336 129.588 295.015 128.881 299.95C114.395 291.196 105.925 273.414 108.115 256.65C110.117 262.042 112.814 267.153 116.141 271.851C117.317 273.595 118.584 275.286 119.844 276.967C120.192 277.431 120.539 277.894 120.884 278.357C122.482 280.507 124.029 282.666 125.35 284.961Z" stroke="#413831"/>
<path d="M235.266 236.624L235.265 236.625C234.705 240.062 233.611 245.445 232.655 249.978C232.177 252.243 231.735 254.292 231.411 255.775C231.377 255.933 231.344 256.084 231.313 256.229C231.224 255.909 231.126 255.555 231.02 255.169C230.514 253.324 229.831 250.766 229.12 247.917C227.695 242.207 226.169 235.361 225.728 230.718L225.728 230.717C224.298 215.728 229.451 200.813 236.534 187.379C240.386 203.368 237.973 220.233 235.266 236.624Z" stroke="#413831"/>
<mask id="path-13-inside-1_519_252" fill="white">
<path d="M209.281 312.313C210.281 306.24 212.058 300.514 215.812 295.573C218.679 291.784 221.92 288.411 224.141 284.17C227.312 278.153 228.804 271.421 229.887 264.737C231.042 258.186 231 258.5 231.5 254.5C231.5 253.945 230.66 253.945 230.632 254.5C230.475 257.64 230.096 258.85 228.846 265.723C227.68 272.601 225.98 279.603 222.322 285.593C220.039 289.368 216.895 292.464 214.355 296.045C210.968 300.82 209.365 306.337 208.428 312.063C208.337 312.605 209.17 312.84 209.261 312.292L209.281 312.313Z"/>
</mask>
<path d="M209.281 312.313L208.574 313.02L209.952 314.398L210.268 312.475L209.281 312.313ZM215.812 295.573L216.608 296.178L216.61 296.176L215.812 295.573ZM224.141 284.17L223.256 283.704L223.255 283.706L224.141 284.17ZM229.887 264.737L228.902 264.564L228.9 264.577L229.887 264.737ZM231.5 254.5L232.492 254.624L232.5 254.562V254.5H231.5ZM230.632 254.5L231.631 254.55L230.632 254.5ZM228.846 265.723L227.862 265.544L227.86 265.556L228.846 265.723ZM222.322 285.593L221.469 285.072L221.467 285.075L222.322 285.593ZM214.355 296.045L213.539 295.466L214.355 296.045ZM208.428 312.063L209.414 312.228L209.415 312.225L208.428 312.063ZM209.261 312.292L209.968 311.585L208.59 310.208L208.274 312.13L209.261 312.292ZM210.268 312.475C211.254 306.485 212.991 300.939 216.608 296.178L215.016 294.968C211.124 300.09 209.308 305.995 208.295 312.151L210.268 312.475ZM216.61 296.176C219.381 292.512 222.755 288.97 225.026 284.634L223.255 283.706C221.084 287.851 217.976 291.055 215.015 294.97L216.61 296.176ZM225.025 284.636C228.275 278.47 229.788 271.606 230.874 264.897L228.9 264.577C227.821 271.236 226.349 277.835 223.256 283.704L225.025 284.636ZM230.872 264.911C232.027 258.355 231.989 258.649 232.492 254.624L230.508 254.376C230.011 258.351 230.056 258.018 228.902 264.564L230.872 264.911ZM232.5 254.5C232.5 254.087 232.333 253.704 232.028 253.436C231.741 253.185 231.391 253.084 231.077 253.084C230.448 253.084 229.68 253.53 229.634 254.45L231.631 254.55C231.625 254.683 231.557 254.841 231.423 254.953C231.306 255.052 231.178 255.084 231.077 255.084C230.976 255.084 230.837 255.052 230.709 254.94C230.562 254.81 230.5 254.636 230.5 254.5H232.5ZM229.634 254.45C229.481 257.504 229.125 258.605 227.862 265.544L229.83 265.902C231.068 259.095 231.47 257.776 231.631 254.55L229.634 254.45ZM227.86 265.556C226.699 272.403 225.024 279.25 221.469 285.072L223.176 286.114C226.936 279.957 228.661 272.798 229.832 265.89L227.86 265.556ZM221.467 285.075C220.364 286.898 219.047 288.569 217.662 290.258C216.289 291.931 214.835 293.639 213.539 295.466L215.17 296.623C216.414 294.87 217.803 293.239 219.208 291.526C220.601 289.828 221.997 288.064 223.178 286.11L221.467 285.075ZM213.539 295.466C210.027 300.418 208.389 306.106 207.441 311.902L209.415 312.225C210.34 306.569 211.909 301.222 215.17 296.623L213.539 295.466ZM207.441 311.899C207.291 312.798 207.939 313.391 208.508 313.549C208.802 313.632 209.182 313.638 209.541 313.451C209.936 313.246 210.179 312.873 210.247 312.455L208.274 312.13C208.298 311.986 208.402 311.789 208.618 311.677C208.799 311.583 208.959 311.599 209.045 311.623C209.135 311.648 209.232 311.704 209.309 311.807C209.398 311.927 209.438 312.084 209.414 312.228L207.441 311.899ZM208.553 312.999L208.574 313.02L209.989 311.606L209.968 311.585L208.553 312.999Z" fill="#413831" mask="url(#path-13-inside-1_519_252)"/>
<path d="M248.156 232.948C252.117 228.763 255.701 224.307 258.51 219.282C257.977 236.137 246.771 252.326 231.084 258.635C231.176 253.651 233.787 248.337 236.966 244.412C238.633 242.354 240.499 240.462 242.417 238.595C242.921 238.104 243.429 237.615 243.938 237.125C245.361 235.754 246.791 234.377 248.155 232.95L248.156 232.948Z" stroke="#413831"/>
<path d="M235.239 276.703L235.239 276.703L235.23 276.712C232.823 279.139 229.099 282.247 225.963 284.757C224.401 286.007 222.99 287.104 221.968 287.891C222.137 287.546 222.328 287.16 222.537 286.739C223.461 284.879 224.756 282.335 226.238 279.596C229.213 274.097 232.905 267.884 235.856 264.806C237.938 262.643 240.292 260.756 242.674 258.849C242.991 258.594 243.31 258.339 243.628 258.083C245.882 256.268 248.126 254.403 250.099 252.255C249.352 256.755 247.661 261.053 245.129 264.863C242.273 269.158 238.957 273.128 235.239 276.703Z" stroke="#413831"/>
<path d="M222.323 285.271C222.178 284.811 222.006 284.262 221.814 283.639C221.203 281.654 220.389 278.919 219.577 275.915C217.947 269.883 216.347 262.844 216.374 258.599L216.375 258.599C216.383 257.193 216.397 255.976 216.41 254.87C216.456 251.001 216.485 248.491 216.194 244.047C223.5 253.425 225.784 262.73 225.674 267.565L222.323 285.271ZM222.323 285.271C222.363 285.125 222.404 284.971 222.448 284.808C222.792 283.527 223.253 281.747 223.719 279.753C224.653 275.753 225.596 270.94 225.674 267.565L222.323 285.271Z" stroke="#413831"/>
<path d="M134.864 244.131L134.863 244.13C129.366 235.678 123.924 226.929 122.047 217.192C129.206 222.958 135.608 229.971 138.446 238.591L138.446 238.591C139.342 241.307 140.177 245.541 140.789 249.122C141.086 250.857 141.33 252.43 141.502 253.589C140.988 252.881 140.345 251.991 139.651 251.023C137.986 248.699 136.033 245.931 134.864 244.131Z" stroke="#413831"/>
<path d="M257.688 354.627C262.383 351.291 266.764 347.621 270.496 343.237C266.663 359.685 252.532 373.349 235.956 376.52C237.014 371.641 240.605 366.92 244.483 363.703C246.517 362.015 248.715 360.527 250.96 359.068C251.497 358.719 252.038 358.371 252.579 358.023C254.294 356.92 256.021 355.809 257.688 354.627L257.688 354.627Z" stroke="#413831"/>
<path d="M238.702 402.628C242.236 400.218 245.45 397.375 248.27 394.166C245.212 406.546 234.571 416.768 222.086 419.214C222.954 415.561 225.639 412.028 228.562 409.598C230.121 408.302 231.804 407.162 233.529 406.041C233.945 405.771 234.364 405.502 234.784 405.231C236.097 404.387 237.422 403.535 238.702 402.628Z" stroke="#413831"/>
<path d="M114.293 374.17C110.758 364.725 107.343 355.015 107.617 345.096C113.365 352.276 118.083 360.513 118.99 369.537L118.99 369.538C119.277 372.38 119.176 376.694 118.999 380.322C118.913 382.081 118.81 383.67 118.727 384.839C118.378 384.036 117.943 383.027 117.475 381.931C116.352 379.302 115.045 376.178 114.293 374.17Z" stroke="#413831"/>
<path d="M263.119 299.672C262.421 300.057 261.823 300.378 261.351 300.628C261.514 300.239 261.711 299.771 261.939 299.234C262.639 297.585 263.625 295.295 264.766 292.736C267.051 287.611 269.952 281.426 272.433 277.126C273.668 274.986 277.379 270.431 282.566 264.883C287.496 259.608 293.725 253.472 300.346 247.725C299.13 256.759 295.118 270.816 286.606 281.692C282.524 286.908 275.925 291.796 270.309 295.394C267.508 297.189 264.963 298.655 263.119 299.672Z" stroke="#413831"/>
<mask id="path-23-inside-2_519_252" fill="white">
<path d="M234.565 368.419C234.648 338.513 242.768 321.751 262 300C262.375 299.584 261.764 298.966 261.389 299.382C242.005 321.307 233.781 338.284 233.697 368.419C233.711 368.524 233.762 368.622 233.842 368.692C233.922 368.762 234.025 368.801 234.131 368.801C234.237 368.801 234.34 368.762 234.42 368.692C234.5 368.622 234.551 368.524 234.565 368.419Z"/>
</mask>
<path d="M234.565 368.419L235.557 368.545L235.565 368.483L235.565 368.422L234.565 368.419ZM262 300L261.257 299.331L261.251 299.338L262 300ZM261.389 299.382L260.646 298.713L260.64 298.72L261.389 299.382ZM233.697 368.419L232.697 368.416L232.697 368.481L232.705 368.545L233.697 368.419ZM235.565 368.422C235.606 353.563 237.643 342.033 242.025 331.537C246.409 321.032 253.169 311.498 262.749 300.662L261.251 299.338C251.6 310.253 244.683 319.976 240.179 330.766C235.672 341.565 233.607 353.369 233.565 368.416L235.565 368.422ZM262.743 300.669C263.369 299.974 263.117 299.111 262.687 298.676C262.468 298.454 262.145 298.268 261.752 298.246C261.326 298.222 260.929 298.398 260.646 298.713L262.133 300.051C262.036 300.158 261.857 300.255 261.639 300.243C261.454 300.233 261.331 300.149 261.265 300.082C261.197 300.014 261.134 299.908 261.12 299.764C261.104 299.596 261.162 299.436 261.257 299.331L262.743 300.669ZM260.64 298.72C250.912 309.722 243.932 319.542 239.383 330.436C234.83 341.339 232.739 353.254 232.697 368.416L234.697 368.422C234.739 353.449 236.802 341.808 241.228 331.207C245.658 320.598 252.482 310.967 262.138 300.045L260.64 298.72ZM232.705 368.545C232.749 368.892 232.918 369.211 233.181 369.442L234.503 367.942C234.606 368.032 234.672 368.157 234.689 368.293L232.705 368.545ZM233.181 369.442C233.443 369.673 233.781 369.801 234.131 369.801V367.801C234.268 367.801 234.4 367.851 234.503 367.942L233.181 369.442ZM234.131 369.801C234.481 369.801 234.819 369.673 235.081 369.442L233.759 367.942C233.862 367.851 233.994 367.801 234.131 367.801V369.801ZM235.081 369.442C235.344 369.211 235.513 368.892 235.557 368.545L233.573 368.293C233.59 368.157 233.656 368.032 233.759 367.942L235.081 369.442Z" fill="#413831" mask="url(#path-23-inside-2_519_252)"/>
<path d="M264.958 284.558C264.332 291.873 261.635 300.12 256.588 305.364C246.436 282.911 251.231 254.512 268.048 236.545C265.759 244.742 264.963 253.144 264.873 261.65C264.838 264.603 264.939 267.554 265.039 270.488C265.069 271.382 265.099 272.274 265.126 273.164C265.239 276.984 265.282 280.778 264.958 284.558Z" stroke="#413831"/>
<path d="M234.197 319.441L234.197 319.441C234.093 312.033 234.323 304.616 235.811 297.41C237.189 290.738 239.69 284.231 243.707 278.781C243.512 283.186 243.981 287.574 244.522 291.931C244.594 292.511 244.667 293.091 244.74 293.67C245.287 297.992 245.83 302.282 245.815 306.586L245.815 306.586C245.798 312.709 243.409 322.781 241 331.376C239.8 335.662 238.6 339.562 237.7 342.39C237.374 343.414 237.088 344.297 236.855 345.008C236.814 344.734 236.77 344.437 236.723 344.117C236.454 342.292 236.095 339.757 235.732 336.915C235.004 331.224 234.263 324.327 234.197 319.441Z" stroke="#413831"/>
<path d="M254.853 327.586L254.853 327.586C250.343 329.469 243.72 331.53 238.209 333.124C235.456 333.921 232.987 334.599 231.206 335.078C230.894 335.161 230.604 335.239 230.338 335.31C230.897 334.814 231.593 334.201 232.403 333.495C234.642 331.546 237.745 328.896 241.202 326.091C248.135 320.465 256.432 314.271 262.047 311.821C265.984 310.104 270.121 308.901 274.288 307.689C274.858 307.523 275.428 307.357 275.999 307.19C280.206 305.956 284.414 304.641 288.381 302.71C284.978 308.559 280.002 313.436 274.427 317.353C268.406 321.582 261.686 324.738 254.853 327.586Z" stroke="#413831"/>
<path d="M87.8375 337.483C87.8088 337.881 87.7817 338.248 87.7568 338.579C87.6982 338.444 87.6368 338.303 87.573 338.156C86.9683 336.763 86.1366 334.839 85.2283 332.71C83.4105 328.449 81.291 323.38 80.0705 320.119C74.2437 304.554 68.6054 288.496 69.2651 272.057C78.8169 283.866 86.7689 297.492 88.2798 312.474L88.2799 312.475C88.7476 317.104 88.5799 324.116 88.2918 329.995C88.148 332.93 87.9748 335.573 87.8375 337.483Z" stroke="#413831"/>
<mask id="path-29-inside-3_519_252" fill="white">
<path d="M121.737 390.822C119.703 385.395 117.059 380.301 113.013 376.095C109.605 372.548 105.58 369.675 102.332 365.962C97.3692 360.278 94.1975 353.338 91.5879 346.328C89.2007 340.163 87.1594 333.87 85.4735 327.478C85.435 327.376 85.36 327.293 85.2631 327.243C85.1663 327.194 85.0545 327.183 84.9496 327.211C84.8448 327.24 84.7543 327.306 84.6959 327.398C84.6375 327.49 84.6153 327.6 84.6338 327.707C86.3219 334.099 88.3655 340.392 90.7551 346.557C93.1287 352.935 95.9326 359.237 100.131 364.643C103.157 368.544 106.947 371.584 110.542 374.887C115.4 379.412 118.586 384.847 120.911 391.051C121.105 391.572 121.945 391.343 121.744 390.822H121.737Z"/>
</mask>
<path d="M121.737 390.822L120.8 391.173L121.043 391.822H121.737V390.822ZM113.013 376.095L112.292 376.788L112.292 376.788L113.013 376.095ZM102.332 365.962L101.578 366.62L101.579 366.62L102.332 365.962ZM91.5879 346.328L92.5252 345.979L92.5205 345.967L91.5879 346.328ZM85.4735 327.478L86.4405 327.223L86.4271 327.173L86.4086 327.124L85.4735 327.478ZM84.6338 327.707L83.6482 327.876L83.6557 327.92L83.6669 327.962L84.6338 327.707ZM90.7551 346.557L91.6924 346.208L91.6875 346.196L90.7551 346.557ZM100.131 364.643L100.922 364.03L100.921 364.03L100.131 364.643ZM110.542 374.887L111.223 374.155L111.219 374.151L110.542 374.887ZM120.911 391.051L121.848 390.701L121.847 390.7L120.911 391.051ZM121.744 390.822L122.676 390.462L122.429 389.822H121.744V390.822ZM122.673 390.471C120.614 384.975 117.909 379.742 113.733 375.402L112.292 376.788C116.208 380.859 118.793 385.815 120.8 391.173L122.673 390.471ZM113.734 375.402C111.995 373.592 110.099 371.955 108.275 370.342C106.437 368.717 104.662 367.107 103.084 365.304L101.579 366.62C103.249 368.53 105.111 370.214 106.95 371.84C108.802 373.478 110.623 375.051 112.292 376.788L113.734 375.402ZM103.085 365.304C98.2434 359.759 95.1222 352.955 92.5251 345.979L90.6508 346.677C93.2728 353.72 96.495 360.797 101.578 366.62L103.085 365.304ZM92.5205 345.967C90.1467 339.837 88.1169 333.579 86.4405 327.223L84.5066 327.733C86.202 334.161 88.2548 340.49 90.6554 346.689L92.5205 345.967ZM86.4086 327.124C86.282 326.79 86.0354 326.515 85.717 326.352L84.8093 328.134C84.6846 328.071 84.588 327.963 84.5385 327.833L86.4086 327.124ZM85.717 326.352C85.3986 326.19 85.0312 326.152 84.6865 326.246L85.2128 328.176C85.0778 328.213 84.9339 328.198 84.8093 328.134L85.717 326.352ZM84.6865 326.246C84.3418 326.34 84.0445 326.56 83.8525 326.861L85.5393 327.935C85.4642 328.053 85.3477 328.139 85.2128 328.176L84.6865 326.246ZM83.8525 326.861C83.6605 327.162 83.5877 327.524 83.6482 327.876L85.6193 327.538C85.643 327.676 85.6145 327.817 85.5393 327.935L83.8525 326.861ZM83.6669 327.962C85.3646 334.391 87.4197 340.719 89.8227 346.918L91.6875 346.196C89.3114 340.066 87.2793 333.808 85.6006 327.452L83.6669 327.962ZM89.8179 346.906C92.2026 353.314 95.0487 359.729 99.3417 365.257L100.921 364.03C96.8165 358.745 94.0548 352.557 91.6923 346.208L89.8179 346.906ZM99.3413 365.256C102.436 369.245 106.336 372.38 109.865 375.624L111.219 374.151C107.558 370.787 103.879 367.843 100.922 364.03L99.3413 365.256ZM109.86 375.619C114.578 380.013 117.689 385.303 119.974 391.402L121.847 390.7C119.483 384.391 116.222 378.812 111.223 374.155L109.86 375.619ZM119.974 391.401C120.296 392.264 121.162 392.45 121.74 392.292C122.036 392.21 122.364 392.02 122.576 391.676C122.808 391.301 122.829 390.858 122.676 390.462L120.811 391.183C120.758 391.047 120.75 390.828 120.875 390.625C120.98 390.455 121.124 390.387 121.211 390.363C121.303 390.338 121.418 390.335 121.541 390.387C121.684 390.448 121.797 390.567 121.848 390.701L119.974 391.401ZM121.744 389.822H121.737V391.822H121.744V389.822Z" fill="#413831" mask="url(#path-29-inside-3_519_252)"/>
<path d="M66.709 319.009L66.7097 319.009C68.3747 320.188 70.0967 321.295 71.8067 322.394C72.3532 322.745 72.8984 323.095 73.4402 323.447C75.6846 324.904 77.8801 326.39 79.9145 328.078C83.7921 331.295 87.3838 336.023 88.447 340.897C71.8312 337.758 57.7042 324.067 53.897 307.615C57.6298 312.001 62.0129 315.672 66.709 319.009Z" stroke="#413831"/>
<path d="M87.89 359.481L87.89 359.481L87.8812 359.476C83.543 356.689 79.5199 353.44 75.8823 349.785C72.6573 346.54 70.1628 342.651 68.5569 338.38C70.9097 340.105 73.4722 341.499 76.0353 342.84C76.3985 343.03 76.7616 343.219 77.1242 343.408C79.829 344.815 82.5032 346.207 84.9652 347.925L84.9661 347.925C88.4544 350.348 93.2835 355.72 97.2719 360.539C99.2582 362.938 101.023 365.185 102.292 366.831C102.581 367.206 102.844 367.549 103.077 367.856C101.922 367.283 100.323 366.48 98.5468 365.558C94.9819 363.707 90.7237 361.387 87.89 359.481Z" stroke="#413831"/>
<path d="M102.397 363.619C102.33 364.265 102.268 364.835 102.215 365.314C102.149 365.18 102.08 365.039 102.007 364.891C101.422 363.701 100.628 362.044 99.7854 360.179C98.0958 356.436 96.2347 351.893 95.4833 348.585C94.435 343.859 94.8678 334.289 100.251 323.67C100.832 328.103 101.349 330.563 102.151 334.369C102.377 335.441 102.625 336.621 102.903 337.981C103.738 342.152 103.527 349.372 103.095 355.607C102.88 358.713 102.612 361.554 102.397 363.619Z" stroke="#413831"/>
<path d="M224.995 294.925H117.417V319.539H224.995V294.925Z" fill="#413831"/>
<path d="M225.368 295L117 296.38C130.484 303.28 221.872 289.94 223.37 318H225.368C233.757 309.904 228.863 299.293 225.368 295Z" fill="#222222"/>
<path d="M226.026 321.731C225.578 321.73 225.141 321.595 224.77 321.345C224.399 321.094 224.111 320.739 223.942 320.325C223.773 319.91 223.732 319.455 223.823 319.016C223.914 318.578 224.133 318.177 224.453 317.864C227.324 315.073 228.971 311.257 229.031 307.254C229.091 303.25 227.561 299.386 224.775 296.51C224.4 296.076 224.205 295.514 224.23 294.94C224.254 294.367 224.497 293.824 224.908 293.423C225.319 293.022 225.867 292.792 226.441 292.782C227.016 292.771 227.572 292.98 227.998 293.365C231.607 297.102 233.589 302.116 233.509 307.31C233.429 312.505 231.295 317.456 227.572 321.08C227.16 321.488 226.606 321.721 226.026 321.731Z" fill="#F6F6F6"/>
<path d="M226.4 297.155H113.743C113.151 297.155 112.584 296.92 112.166 296.502C111.748 296.084 111.513 295.516 111.513 294.925C111.513 294.333 111.748 293.766 112.166 293.348C112.584 292.93 113.151 292.695 113.743 292.695H226.4C226.991 292.695 227.558 292.93 227.977 293.348C228.395 293.766 228.63 294.333 228.63 294.925C228.63 295.516 228.395 296.084 227.977 296.502C227.558 296.92 226.991 297.155 226.4 297.155Z" fill="#F6F6F6"/>
<path d="M226.026 321.769H113.742C113.171 321.739 112.633 321.49 112.239 321.074C111.845 320.659 111.626 320.108 111.626 319.536C111.626 318.964 111.845 318.413 112.239 317.998C112.633 317.582 113.171 317.333 113.742 317.303H226.026C226.597 317.333 227.135 317.582 227.529 317.998C227.923 318.413 228.142 318.964 228.142 319.536C228.142 320.108 227.923 320.659 227.529 321.074C227.135 321.49 226.597 321.739 226.026 321.769Z" fill="#F6F6F6"/>
<path d="M227.624 395.129H120.046V419.744H227.624V395.129Z" fill="#413831"/>
<path d="M120.638 395L229.138 396.5C215.638 404 124.138 389.5 122.638 420H120.638C112.238 411.2 117.138 399.667 120.638 395Z" fill="#222222"/>
<path d="M118.648 422C118.344 422 118.044 421.939 117.765 421.821C117.486 421.702 117.234 421.529 117.023 421.31C113.413 417.575 111.43 412.56 111.51 407.365C111.589 402.17 113.725 397.219 117.449 393.596C117.885 393.231 118.443 393.045 119.011 393.074C119.579 393.103 120.115 393.345 120.511 393.753C120.908 394.16 121.136 394.702 121.15 395.271C121.165 395.839 120.964 396.392 120.588 396.818C117.716 399.609 116.07 403.425 116.01 407.428C115.949 411.432 117.48 415.295 120.265 418.172C120.571 418.491 120.777 418.892 120.858 419.327C120.938 419.762 120.889 420.211 120.717 420.618C120.545 421.026 120.257 421.374 119.889 421.619C119.521 421.865 119.09 421.997 118.648 422Z" fill="#F6F6F6"/>
<path d="M231.298 421.974H118.648C118.344 421.99 118.041 421.945 117.756 421.84C117.47 421.735 117.21 421.573 116.989 421.364C116.769 421.155 116.593 420.904 116.473 420.624C116.353 420.345 116.291 420.045 116.291 419.741C116.291 419.437 116.353 419.136 116.473 418.857C116.593 418.578 116.769 418.327 116.989 418.118C117.21 417.909 117.47 417.747 117.756 417.642C118.041 417.537 118.344 417.491 118.648 417.508H231.298C231.601 417.491 231.905 417.537 232.19 417.642C232.475 417.747 232.736 417.909 232.956 418.118C233.177 418.327 233.353 418.578 233.473 418.857C233.593 419.136 233.655 419.437 233.655 419.741C233.655 420.045 233.593 420.345 233.473 420.624C233.353 420.904 233.177 421.155 232.956 421.364C232.736 421.573 232.475 421.735 232.19 421.84C231.905 421.945 231.601 421.99 231.298 421.974Z" fill="#F6F6F6"/>
<path d="M231.298 397.366H119.021C118.718 397.382 118.414 397.336 118.129 397.232C117.844 397.127 117.583 396.965 117.363 396.756C117.142 396.547 116.966 396.295 116.846 396.016C116.726 395.737 116.665 395.436 116.665 395.133C116.665 394.829 116.726 394.528 116.846 394.249C116.966 393.97 117.142 393.718 117.363 393.509C117.583 393.3 117.844 393.138 118.129 393.033C118.414 392.929 118.718 392.883 119.021 392.899H231.298C231.601 392.883 231.905 392.929 232.19 393.033C232.475 393.138 232.736 393.3 232.956 393.509C233.177 393.718 233.352 393.97 233.472 394.249C233.592 394.528 233.654 394.829 233.654 395.133C233.654 395.436 233.592 395.737 233.472 396.016C233.352 396.295 233.177 396.547 232.956 396.756C232.736 396.965 232.475 397.127 232.19 397.232C231.905 397.336 231.601 397.382 231.298 397.366Z" fill="#F6F6F6"/>
<path d="M241.739 392.983H127.852C126.911 392.983 126.01 392.61 125.345 391.945C124.68 391.28 124.307 390.379 124.307 389.438C124.307 388.498 124.68 387.597 125.345 386.932C126.01 386.267 126.911 385.894 127.852 385.894H241.739C242.68 385.894 243.581 386.267 244.246 386.932C244.911 387.597 245.284 388.498 245.284 389.438C245.284 390.379 244.911 391.28 244.246 391.945C243.581 392.61 242.68 392.983 241.739 392.983Z" fill="#F6F6F6"/>
<path d="M246.317 354.673H242.585V323.935H246.317C246.317 323.935 252.459 335.498 252.459 339.346C252.459 343.194 246.317 354.673 246.317 354.673Z" fill="#F6F6F6"/>
<path d="M244.751 323.935H109.851V354.756H244.751V323.935Z" fill="#413831"/>
<path d="M244.261 324L110 325.8C126.705 334.8 239.93 317.4 241.786 354H244.261C254.655 343.44 248.592 329.6 244.261 324Z" fill="#222222"/>
<path d="M245.853 356.928C245.405 356.927 244.968 356.793 244.597 356.542C244.226 356.292 243.938 355.937 243.769 355.522C243.601 355.108 243.559 354.652 243.65 354.214C243.741 353.776 243.96 353.374 244.28 353.061C246.118 351.28 247.587 349.155 248.604 346.806C249.62 344.457 250.163 341.931 250.203 339.373C250.242 336.814 249.777 334.272 248.834 331.893C247.891 329.514 246.488 327.344 244.706 325.508C244.472 325.302 244.284 325.051 244.153 324.769C244.022 324.488 243.95 324.182 243.942 323.872C243.934 323.561 243.991 323.252 244.108 322.964C244.225 322.677 244.401 322.416 244.623 322.199C244.846 321.983 245.111 321.814 245.401 321.705C245.692 321.595 246.002 321.547 246.313 321.563C246.623 321.578 246.927 321.658 247.205 321.797C247.483 321.936 247.729 322.13 247.928 322.369C250.123 324.63 251.851 327.301 253.014 330.23C254.176 333.159 254.749 336.289 254.701 339.44C254.654 342.591 253.985 345.701 252.734 348.594C251.484 351.486 249.675 354.104 247.413 356.297C246.994 356.701 246.435 356.928 245.853 356.928Z" fill="#F6F6F6"/>
<path d="M245.853 356.986H105.256C104.658 356.986 104.084 356.749 103.661 356.326C103.238 355.903 103 355.329 103 354.73C103 354.132 103.238 353.558 103.661 353.135C104.084 352.712 104.658 352.475 105.256 352.475H245.853C246.451 352.475 247.025 352.712 247.448 353.135C247.871 353.558 248.109 354.132 248.109 354.73C248.109 355.329 247.871 355.903 247.448 356.326C247.025 356.749 246.451 356.986 245.853 356.986Z" fill="#F6F6F6"/>
<path d="M245.853 326.071H105.256C104.658 326.071 104.084 325.834 103.661 325.411C103.238 324.987 103 324.414 103 323.815C103 323.217 103.238 322.643 103.661 322.22C104.084 321.797 104.658 321.56 105.256 321.56H245.853C246.451 321.56 247.025 321.797 247.448 322.22C247.871 322.643 248.109 323.217 248.109 323.815C248.109 324.414 247.871 324.987 247.448 325.411C247.025 325.834 246.451 326.071 245.853 326.071Z" fill="#F6F6F6"/>
<path d="M235.429 359.133H127.851V383.747H235.429V359.133Z" fill="#413831"/>
<path d="M236.5 359L128 360.5C141.5 368 233 353.5 234.5 384H236.5C244.9 375.2 240 363.667 236.5 359Z" fill="#222222"/>
<path d="M236.454 385.938C236.007 385.936 235.571 385.801 235.201 385.55C234.831 385.299 234.544 384.944 234.376 384.529C234.208 384.115 234.167 383.66 234.258 383.222C234.35 382.785 234.569 382.384 234.888 382.071C237.759 379.28 239.406 375.465 239.466 371.461C239.526 367.458 237.996 363.594 235.21 360.718C234.835 360.283 234.64 359.722 234.665 359.148C234.689 358.574 234.932 358.031 235.343 357.63C235.754 357.229 236.302 357 236.877 356.989C237.451 356.978 238.007 357.187 238.433 357.573C242.041 361.31 244.021 366.324 243.941 371.518C243.862 376.712 241.728 381.662 238.008 385.287C237.594 385.697 237.037 385.931 236.454 385.938Z" fill="#F6F6F6"/>
<path d="M236.835 361.389H124.184C123.586 361.389 123.012 361.151 122.589 360.728C122.166 360.305 121.928 359.731 121.928 359.133C121.928 358.535 122.166 357.961 122.589 357.538C123.012 357.115 123.586 356.877 124.184 356.877H236.835C237.433 356.877 238.007 357.115 238.43 357.538C238.853 357.961 239.09 358.535 239.09 359.133C239.09 359.731 238.853 360.305 238.43 360.728C238.007 361.151 237.433 361.389 236.835 361.389Z" fill="#F6F6F6"/>
<path d="M236.454 385.99H124.184C123.586 385.99 123.012 385.753 122.589 385.329C122.166 384.906 121.928 384.333 121.928 383.734C121.928 383.136 122.166 382.562 122.589 382.139C123.012 381.716 123.586 381.479 124.184 381.479H236.454C237.053 381.479 237.626 381.716 238.049 382.139C238.472 382.562 238.71 383.136 238.71 383.734C238.71 384.333 238.472 384.906 238.049 385.329C237.626 385.753 237.053 385.99 236.454 385.99Z" fill="#F6F6F6"/>
<path d="M172.537 374.079L167.509 367.634L162.476 374.079V357.019C162.475 356.99 162.486 356.962 162.505 356.941C162.524 356.92 162.55 356.906 162.579 356.903C164.215 356.71 165.862 356.62 167.509 356.632C169.157 356.607 170.805 356.697 172.44 356.903C172.468 356.906 172.494 356.92 172.512 356.941C172.529 356.963 172.538 356.991 172.537 357.019V374.079Z" fill="url(#paint0_linear_519_252)"/>
<path d="M234.198 260.565L213.083 268.525H139.543L118.46 260.481L176.455 241.461L234.198 260.565Z" fill="#F6F6F6"/>
<path d="M234.894 257.789L177.325 240.108L177.228 240.069L177.074 240.005H176.938H176.79H176.513C176.457 239.998 176.401 239.998 176.345 240.005H176.249L118.061 257.51C117.711 257.61 117.408 257.832 117.208 258.137C117.009 258.441 116.926 258.808 116.974 259.169C117.023 259.529 117.2 259.861 117.473 260.102C117.746 260.343 118.096 260.478 118.46 260.481C118.597 260.48 118.733 260.463 118.866 260.43L176.455 243.066L233.502 260.457C233.717 260.569 233.956 260.627 234.198 260.625C234.53 260.615 234.849 260.497 235.106 260.289C235.364 260.081 235.547 259.794 235.626 259.472C235.705 259.15 235.676 258.811 235.544 258.507C235.412 258.203 235.184 257.951 234.894 257.789Z" fill="#F6F6F6"/>
<path d="M213.084 293C213.084 293 191.073 294.268 176.455 294.268C159.259 294.268 139.543 291.89 139.543 291.89V260.733C151.449 256.771 163.907 254.722 176.455 254.662C195.791 254.662 213.084 260.733 213.084 260.733V293Z" fill="#F6F6F6"/>
<path d="M156.81 293.5C146.143 292.798 139.543 293.5 139.543 293.5V260.733C145.248 258.378 151.172 256.592 157.229 255.402L156.81 293.5Z" fill="#F6F6F6"/>
<path d="M165.5 263C147.5 264 141 267.667 139.5 268.5V292.703H150.44C150.44 284.303 149.5 271 165.5 263Z" fill="#413831"/>
<defs>
<linearGradient id="paint0_linear_519_252" x1="163" y1="357.5" x2="172.5" y2="374" gradientUnits="userSpaceOnUse">
<stop stop-color="#CD9639"/>
<stop offset="1" stop-color="#FFE3B4"/>
</linearGradient>
</defs>
</svg>
