<svg width="358" height="662" viewBox="0 0 358 662" fill="none" xmlns="http://www.w3.org/2000/svg">
<mask id="mask0_519_251" style="mask-type:alpha" maskUnits="userSpaceOnUse" x="0" y="0" width="358" height="662">
<path d="M0 0H358V662H0V0Z" fill="#222222"/>
</mask>
<g mask="url(#mask0_519_251)">
<path d="M481.5 200.5C481.5 371.708 342.708 510.5 171.5 510.5C0.291794 510.5 -138.5 371.708 -138.5 200.5C-138.5 29.2918 0.291794 -109.5 171.5 -109.5C342.708 -109.5 481.5 29.2918 481.5 200.5Z" stroke="#413831"/>
<path d="M385.5 200.5C385.5 318.689 289.689 414.5 171.5 414.5C53.3111 414.5 -42.5 318.689 -42.5 200.5C-42.5 82.3111 53.3111 -13.5 171.5 -13.5C289.689 -13.5 385.5 82.3111 385.5 200.5Z" stroke="#413831"/>
<path d="M314.5 200.5C314.5 279.477 250.477 343.5 171.5 343.5C92.5233 343.5 28.5 279.477 28.5 200.5C28.5 121.523 92.5233 57.5 171.5 57.5C250.477 57.5 314.5 121.523 314.5 200.5Z" stroke="#413831"/>
<path d="M268.5 200.5C268.5 254.072 225.072 297.5 171.5 297.5C117.928 297.5 74.5 254.072 74.5 200.5C74.5 146.928 117.928 103.5 171.5 103.5C225.072 103.5 268.5 146.928 268.5 200.5Z" stroke="#413831"/>
<path d="M171.5 276C213.197 276 247 242.198 247 200.5C247 158.803 213.197 125 171.5 125C129.803 125 96 158.803 96 200.5C96 242.198 129.803 276 171.5 276Z" fill="#CF993E"/>
<path d="M143.466 221.899C143.466 221.899 145.009 256.173 142.679 264.059C140.349 271.945 134.794 267.593 127.247 275.478C119.701 283.364 122.525 308.965 122.525 308.965L150.102 344.042C150.102 344.042 157.987 265.633 161.537 264.059C165.086 262.485 178.512 260.895 178.512 260.895L184.823 238.442C184.16 227.1 176.49 217.671 166.305 215.202C153.759 212.146 144.068 221.313 143.466 221.899Z" fill="#EE7620"/>
<path d="M70.798 545.334C71.153 545.905 77.4954 555.874 75.9831 561.429C75.9452 561.6 75.8883 561.765 75.8134 561.923H63.3908C61.1532 555.75 56.3693 542.247 55.1811 537.51C53.6379 531.337 62.4649 522.433 62.4649 522.433L78.5757 525.519C78.2847 530.093 77.5928 534.632 76.5078 539.084C74.5017 548.544 71.0758 545.581 70.798 545.334Z" fill="#F1CBA7"/>
<path d="M62.5002 522.5C58.8335 525 52.6002 532.7 57.0002 543.5C61.4002 554.3 62.8334 559.667 63 561C63.1667 561.333 63.9 562 65.5 562C67.1 562 72.5 562 75 562C75.5 562 76.5 561.6 76.5 560C76.5 558 74 548 70.5 546" stroke="#222222" stroke-width="1.5"/>
<path d="M65.3156 531.405C67.7847 534.121 67.2292 538.118 67.1057 541.467C67.044 542.428 67.044 543.391 67.1057 544.352C67.0918 544.682 67.1558 545.01 67.2925 545.311C67.4293 545.611 67.6349 545.875 67.8927 546.081C68.7138 546.471 69.5961 546.716 70.5007 546.806L73.587 547.485C73.7834 547.537 73.9925 547.51 74.1687 547.408C74.345 547.307 74.4742 547.141 74.5284 546.945C76.1127 541.297 77.5684 535.639 78.8956 529.97C79.1116 528.998 77.6302 528.581 77.3524 529.553C76.0407 535.263 74.5747 540.957 73.0007 546.528L73.942 545.988L71.1797 545.371C70.6087 545.247 68.8958 545.124 68.6335 544.615C68.504 544.159 68.4673 543.681 68.5254 543.21C68.5254 542.794 68.5254 542.362 68.5254 541.93C68.5254 540.957 68.618 540.001 68.6489 539.028C68.7724 535.942 68.4791 532.686 66.3032 530.309C65.6242 529.569 64.544 530.664 65.2076 531.39L65.3156 531.405Z" fill="#222222"/>
<path d="M232.368 416.417C232.368 416.417 241.72 428.762 246.149 427.728C250.578 426.694 260.902 415.923 260.902 415.923L266.303 410.012L270.732 388.408L249.59 275.756C249.59 275.756 203.295 252.608 200.887 248.21C199.252 245.278 198.496 238.627 198.156 234.491C198.002 232.439 197.94 231.004 197.94 231.004L149.253 231.498L142.663 236.328L104.285 264.506L90.2263 274.738L95.6428 294.891L81.8623 300.802C81.8623 300.802 83.7141 372.837 84.8097 441.231C74.8408 466.554 55.7517 515.442 56.4153 517.448C57.3258 520.149 74.0075 531.877 82.1246 530.982C83.3063 530.845 84.467 530.565 85.5813 530.149C85.4887 547.726 82.6493 660.716 81.8623 663H283C283 663 263.849 473.36 238.772 427.142L232.368 416.417Z" fill="#413831"/>
<path d="M140.349 219.523C140.673 220.834 145.519 260 143.436 262.824C141.352 265.648 129.315 272.917 129.315 272.917L119.763 315.277L150.102 354.273L189.87 311.265L182.154 259.182L179.901 252.732L181.83 246.667L188.697 226.081C182.071 220.545 174.017 216.992 165.461 215.832C156.904 214.672 148.195 215.951 140.334 219.523H140.349Z" fill="#F1CBA7"/>
<path d="M142.185 225.881C142.802 225.973 144.546 229.801 144.87 230.31C150.935 240.186 157.015 250.479 167.385 256.328C169.126 257.455 171.145 258.08 173.218 258.133C179.823 257.794 183.079 250.093 184.638 244.769C184.638 244.769 182.709 251.343 168.759 243.411C160.033 238.404 151.77 232.63 144.068 226.159L142.185 225.881Z" fill="#222222"/>
<path d="M184.052 499.672C184.947 505.567 154.562 504.425 151.167 504.579C143.544 504.965 135.92 505.536 128.328 506.246C124.67 506.616 121.029 507.002 117.402 507.45C115.087 507.727 108.976 509.656 107.047 508.345C104.084 506.323 105.026 498.036 105.134 495.197C105.628 481.493 108.097 467.744 110.705 454.21C110.866 454.171 111.01 454.078 111.111 453.946C111.212 453.814 111.265 453.651 111.26 453.485C111.26 452.744 111.26 451.942 111.26 451.247C111.569 449.704 111.878 448.161 112.171 446.618C115.612 428.902 119.887 411.325 123.143 393.579C123.564 391.225 123.155 388.797 121.985 386.711L110.921 366.866L110.103 365.416C109.856 364.999 109.624 364.536 109.393 364.119C105.817 357.005 104.766 348.885 106.415 341.095C109.871 324.892 115.674 298.627 117.711 293.658C120.612 286.698 129.933 272.053 130.843 270.665C128.644 277.22 126.988 283.945 125.89 290.772C124.07 301.648 126.341 312.812 132.263 322.114C138.081 331.265 149.917 340.956 150.92 341.265C152.463 341.774 178.126 460.722 184.052 499.672Z" fill="#F6F6F6"/>
<path d="M201.31 663H157L113.543 505.782C132.846 499.383 153.611 498.846 173.218 504.239C175.986 523.467 198.512 643.772 201.31 663Z" fill="#F1CBA7"/>
<path d="M233.994 663L187 663L189.873 496.519C210.195 495.78 230.28 501.079 247.593 511.745C244.866 530.979 236.691 643.758 233.994 663Z" fill="#D9AC85"/>
<path d="M111.275 451.247C111.275 451.987 111.275 452.79 111.275 453.484C111.279 453.65 111.227 453.813 111.126 453.945C111.024 454.077 110.881 454.171 110.719 454.209C110.904 453.222 111.09 452.203 111.275 451.247Z" fill="#FBF8D5"/>
<path d="M188.774 158.074C191.598 159.617 200.1 163.984 204.36 173.012C206.502 179.631 206.968 186.677 205.718 193.521C204.838 198.444 203.603 198.305 202.631 204.555C201.659 210.804 202.431 213.335 200.857 218.736C199.833 221.596 198.579 224.367 197.107 227.023C189.777 241.869 187.246 243.119 185.888 245.063C184.842 246.571 183.311 247.674 181.55 248.188C179.789 248.702 177.904 248.596 176.212 247.887C165.78 243.535 144.87 233.998 140.719 225.449C135.21 214.014 155.302 168.352 155.302 168.352C155.302 168.352 175.363 156.531 182.092 157.318L188.774 158.074Z" fill="#F1CBA7"/>
<path d="M166.012 227.501C166.012 227.501 175.471 237.994 180.363 237.13C185.255 236.266 188.604 231.174 188.604 231.174C188.604 231.174 190.656 223.458 188.943 222.933C186.675 222.239 183.697 226.791 183.697 226.791C183.697 226.791 183.002 219.97 174.762 223.473C166.521 226.976 166.012 227.501 166.012 227.501Z" fill="#941F1F"/>
<path d="M154.547 186.129C156.575 186.76 158.688 187.072 160.812 187.055C162.908 186.715 165.034 186.596 167.154 186.7C168.355 186.914 169.495 187.384 170.496 188.079C171.498 188.774 172.337 189.678 172.957 190.728C173.294 191.512 173.708 192.262 174.191 192.966C174.323 193.092 174.485 193.183 174.662 193.229C174.839 193.275 175.024 193.275 175.201 193.228C175.378 193.182 175.539 193.091 175.671 192.964C175.802 192.836 175.898 192.678 175.951 192.503C176.228 190.666 174.809 188.784 173.589 187.518C172.261 186.157 170.602 185.162 168.775 184.632C166.695 184.139 164.528 184.139 162.448 184.632C159.904 185.1 157.314 185.266 154.732 185.126C154.192 185.126 154.099 185.898 154.608 186.052L154.547 186.129Z" fill="#222222"/>
<path d="M192.708 196.653C193.742 195.835 194.792 195.109 195.795 194.276C196.755 193.473 197.819 192.803 198.958 192.285C200.006 191.866 201.135 191.686 202.261 191.761C202.81 191.881 203.367 191.963 203.927 192.008C204.468 192.008 204.977 192.146 205.471 192.131C205.54 192.131 205.609 192.115 205.671 192.085C205.733 192.054 205.787 192.009 205.829 191.954C205.871 191.898 205.9 191.834 205.912 191.765C205.925 191.697 205.922 191.627 205.903 191.56C205.704 190.984 205.332 190.482 204.838 190.125C204.251 189.613 203.503 189.323 202.724 189.307C201.28 189.149 199.819 189.339 198.465 189.863C197.03 190.438 195.701 191.247 194.529 192.254C193.381 193.3 192.37 194.488 191.52 195.788C191.011 196.483 192.06 197.1 192.631 196.653H192.708Z" fill="#222222"/>
<path d="M186.998 159.632C183.557 158.274 157.91 167.225 157.91 167.225C157.91 167.225 140.688 217.81 140.348 219.538C140.163 220.48 141.506 228.365 142.663 236.313L104.284 264.507L104.608 262.963C104.608 262.963 129.392 168.999 139.376 156.608C149.36 144.216 181.443 144 181.443 144C181.443 144 190.44 161.021 186.998 159.632Z" fill="#F6F6F6"/>
<path d="M183.99 144.941L191.305 159.709C191.305 159.709 205.085 169.122 205.394 181.314C205.503 189.147 204.553 196.959 202.57 204.538C202.57 204.538 200.672 218.211 198.866 222.609C197.061 227.007 181.305 250.834 181.305 250.834L178.527 260.88L206.135 259.46L212.678 188.551C212.678 188.551 216.104 163.274 184.901 144.154C184.788 144.071 184.651 144.029 184.511 144.035C184.371 144.04 184.238 144.093 184.132 144.184C184.026 144.276 183.954 144.401 183.929 144.538C183.903 144.675 183.925 144.817 183.99 144.941Z" fill="#F6F6F6"/>
<path d="M238.773 427.234C248.362 449.363 257.919 471.786 267.446 494.501C276.972 517.217 300 635.5 304 663H195.5C193.818 655.006 175.086 520.18 170.812 500.921C165.935 478.962 145.812 325.909 145.195 310.061C144.578 294.212 158.621 261.898 158.621 261.898L178.574 260.895L179.963 252.732C181.29 244.862 197.2 235.093 198.203 234.476C198.543 238.612 199.299 245.278 200.935 248.195C203.404 252.608 249.637 275.741 249.637 275.741L270.779 388.393L266.35 409.997L260.949 415.907L238.773 427.234Z" fill="#413831"/>
<path d="M111.276 450.66C111.399 440.12 111.276 429.58 111.276 419.056C111.152 406.71 110.982 394.365 110.936 381.942C110.936 376.942 110.936 371.927 110.936 366.943L110.118 365.492C109.871 365.075 109.64 364.612 109.408 364.196C109.254 375.399 109.408 386.649 109.408 397.868C109.532 410.213 109.686 422.559 109.732 434.997C109.732 441.169 109.732 447.342 109.732 453.515C109.727 453.615 109.744 453.716 109.782 453.809C109.819 453.903 109.877 453.987 109.95 454.056C110.024 454.125 110.111 454.177 110.207 454.209C110.303 454.241 110.404 454.251 110.504 454.24C110.502 453.005 110.765 451.784 111.276 450.66Z" fill="#222222"/>
<path d="M148.882 189.863C148.882 189.863 126.321 173.706 129.978 207.841C129.978 207.841 130.889 215.465 140.95 215.465C151.012 215.465 148.882 189.863 148.882 189.863Z" fill="#F1CBA7"/>
<path d="M138.991 240.541C134.284 240.541 129.771 238.672 126.442 235.344C123.114 232.015 121.245 227.502 121.245 222.795C121.245 218.088 123.114 213.574 126.442 210.246C129.771 206.918 134.284 205.048 138.991 205.048V206.592C134.694 206.592 130.572 208.299 127.534 211.337C124.495 214.376 122.788 218.497 122.788 222.795C122.788 227.092 124.495 231.214 127.534 234.252C130.572 237.291 134.694 238.998 138.991 238.998C140.343 238.999 141.688 238.812 142.988 238.443L143.405 239.986C141.966 240.371 140.481 240.558 138.991 240.541Z" fill="#CC973D"/>
<path d="M253.973 505.953C251.373 494.973 248.143 484.153 244.297 473.546L244.066 472.898C244.005 472.714 243.878 472.56 243.71 472.466C243.541 472.372 243.343 472.344 243.155 472.388H242.908C231.043 476.824 219.914 483.025 209.9 490.783C207.287 492.841 204.766 494.975 202.338 497.187C202.227 497.219 202.125 497.276 202.039 497.354C201.954 497.431 201.887 497.527 201.845 497.635C201.791 497.779 201.791 497.938 201.845 498.082C201.968 498.468 202.107 498.854 202.23 499.24C204.656 507.239 207.754 515.018 211.489 522.495C213.473 526.251 215.836 529.793 218.542 533.066C221.165 536.152 224.251 539.486 228.156 540.967C232.538 542.603 237.029 540.967 240.856 538.699C244.524 536.693 247.891 534.178 250.856 531.23C253.743 528.32 255.541 524.506 255.948 520.428C256.396 515.567 255.022 510.628 253.973 505.953ZM251.967 527.557C249.595 530.775 246.604 533.488 243.171 535.535C239.652 537.85 235.455 540.551 231.103 540.165C226.937 539.81 223.634 536.554 220.98 533.622C218.231 530.552 215.83 527.188 213.82 523.591C209.283 515.644 206.32 506.925 203.434 498.298C212.52 490.009 222.793 483.123 233.912 477.867C236.813 476.509 239.771 475.248 242.785 474.086C245.979 482.913 248.757 491.848 251.072 500.953C252.346 505.555 253.377 510.222 254.158 514.934C255.051 519.29 254.245 523.822 251.905 527.603L251.967 527.557Z" fill="#222222"/>
<path d="M248.973 357.159C244.104 352.825 238.292 349.686 231.998 347.992C231.872 347.953 231.738 347.953 231.612 347.992L227.075 345.091C226.643 344.813 226.195 344.52 225.763 344.212C229.878 329.942 233.479 315.539 236.566 301.003C236.766 300.031 235.285 299.614 235.022 300.586C234.143 304.753 233.201 308.904 232.229 313.055C231.227 309.319 230.005 305.645 228.572 302.052C228.202 301.142 226.72 301.543 227.029 302.469C228.788 306.867 230.232 311.384 231.35 315.987C231.369 316.046 231.395 316.103 231.427 316.157C229.246 325.282 226.869 334.351 224.297 343.363C216.557 338.196 209.217 332.455 202.338 326.187C198.002 322.252 193.866 318.101 189.992 313.842C189.906 313.739 189.791 313.665 189.661 313.629C189.531 313.593 189.394 313.597 189.267 313.641C189.292 313.499 189.267 313.352 189.197 313.226C189.127 313.1 189.015 313.001 188.881 312.947C187.09 312.116 185.115 311.762 183.147 311.919C181.178 312.076 179.284 312.738 177.647 313.842C176.829 314.397 177.647 315.74 178.419 315.169C179.82 314.204 181.447 313.616 183.141 313.462C184.836 313.308 186.542 313.593 188.094 314.289C188.192 314.331 188.297 314.353 188.403 314.353C188.509 314.353 188.614 314.331 188.712 314.289C188.694 314.403 188.702 314.52 188.737 314.63C188.772 314.739 188.832 314.84 188.912 314.922C195.881 322.544 203.451 329.594 211.551 336.002C215.563 339.088 219.714 342.175 223.896 345.014C224.236 345.246 224.575 345.446 224.915 345.693C228.371 347.962 231.936 350.076 235.254 352.514C239.497 355.375 242.986 359.218 245.423 363.717C245.855 364.612 247.183 363.841 246.751 362.946C244.142 358.125 240.384 354.022 235.809 351.002C240.176 352.733 244.203 355.22 247.707 358.347C248.618 358.903 249.713 357.822 248.973 357.159Z" fill="#222222"/>
<path d="M181.444 309.336C181.112 308.592 180.714 307.88 180.255 307.207C178.753 304.756 177.403 302.215 176.212 299.599C174.283 295.648 172.447 291.636 170.703 287.608C169.022 287.563 167.341 287.645 165.672 287.855C165.672 288.75 165.533 289.63 165.395 290.51C165.395 290.772 165.395 291.019 165.395 291.281L164.808 304.198L150.812 290.402C150.812 290.402 145.086 293.843 144.639 296.574C144.597 298.534 145.279 300.44 146.552 301.929L140.38 306.127L138.837 313.765L139.978 318.734L138.065 325.987L155.256 343.549L157.54 343.934C158.709 339.225 160.348 334.644 162.432 330.262C165.981 323.101 174.129 320.046 179.561 314.305C181.66 312.129 182.061 310.91 181.444 309.336Z" fill="#F1CAA7"/>
<path d="M142.277 325.416C142.694 326.327 144.037 325.54 143.62 324.645C142.396 322.021 141.305 319.352 140.348 316.636C140.023 316.016 139.849 315.329 139.839 314.63C140.072 313.989 140.388 313.382 140.781 312.824C141.248 311.863 141.64 310.867 141.953 309.846C142.663 311.111 143.497 312.315 144.237 313.534L147.709 318.827C148.25 319.66 149.592 318.827 149.037 318.055C147.185 315.216 145.209 312.423 143.497 309.491C143.092 308.802 142.726 308.091 142.401 307.361C142.092 306.651 141.66 305.926 142.185 305.232C143.209 303.948 144.379 302.788 145.672 301.775C145.732 301.726 145.784 301.669 145.827 301.605C147.817 304.522 150.626 306.883 152.246 310.077C152.694 310.957 154.021 310.17 153.573 309.29C151.922 306.034 149.114 303.658 147.061 300.679C145.966 299.136 144.762 297.006 146.151 295.201C147.449 293.601 149.016 292.238 150.78 291.173C151.614 290.649 150.78 289.321 149.993 289.846C148.073 291.009 146.371 292.497 144.963 294.244C144.366 295.051 144.027 296.019 143.992 297.022C143.956 298.024 144.224 299.014 144.762 299.861C144.885 300.093 145.024 300.293 145.148 300.509C144.948 300.491 144.748 300.552 144.592 300.679C143.16 301.795 141.879 303.092 140.781 304.537C140.486 305.114 140.358 305.762 140.41 306.407C140.462 307.053 140.692 307.672 141.074 308.194C140.99 308.238 140.916 308.299 140.857 308.374C140.799 308.448 140.757 308.534 140.734 308.627C140.342 310.092 139.766 311.502 139.021 312.824C138.635 313.377 138.376 314.01 138.265 314.676C138.297 315.395 138.465 316.102 138.759 316.759C139.784 319.703 140.958 322.592 142.277 325.416Z" fill="#222222"/>
<path d="M155.966 343.548C150.554 337.684 145.133 331.831 139.701 325.987C139.022 325.262 137.926 326.358 138.605 327.083L154.87 344.629C155.549 345.369 156.645 344.274 155.966 343.548Z" fill="#222222"/>
<path d="M245.1 428.284C239.606 425.321 235.054 421.263 230.193 417.482C224.992 413.377 219.73 409.334 214.607 405.136C214.206 404.828 213.804 404.488 213.403 404.149C209.406 400.877 205.456 397.528 201.536 394.164C191.752 385.708 182.2 377.004 172.879 368.054C167.633 362.972 162.458 357.828 157.355 352.622C156.862 349.348 157.045 346.008 157.895 342.807C157.948 342.603 157.918 342.385 157.811 342.203C157.704 342.021 157.529 341.888 157.324 341.835C157.119 341.782 156.902 341.812 156.72 341.919C156.537 342.026 156.405 342.202 156.352 342.406C155.379 346.094 155.226 349.949 155.904 353.702C155.916 353.794 155.948 353.883 155.997 353.961C156.046 354.039 156.113 354.106 156.191 354.156C156.269 354.206 156.357 354.238 156.449 354.251C156.54 354.263 156.634 354.255 156.722 354.227C165.662 363.352 174.829 372.236 184.222 380.878C193.614 389.519 203.167 397.811 212.878 405.754C210.749 415.869 210.934 426.336 213.419 436.37C213.472 436.575 213.604 436.75 213.786 436.857C213.969 436.964 214.186 436.994 214.391 436.941C214.595 436.888 214.771 436.756 214.878 436.573C214.985 436.391 215.015 436.174 214.962 435.969C212.604 426.43 212.367 416.49 214.267 406.849C219.751 411.324 225.311 415.738 230.949 420.09L231.103 420.167C235.082 423.902 239.528 427.108 244.328 429.704C245.193 430.09 245.98 428.762 245.1 428.284Z" fill="#222222"/>
</g>
<path d="M189.449 204.834C189.18 204.875 188.904 204.845 188.65 204.747C188.396 204.648 188.173 204.485 188.001 204.274C187.826 204.064 184.227 199.799 179.436 202.47C179.075 202.656 178.655 202.694 178.267 202.575C177.878 202.457 177.551 202.192 177.354 201.836C177.158 201.48 177.108 201.062 177.216 200.67C177.323 200.279 177.579 199.944 177.929 199.738C179.987 198.63 182.37 198.285 184.658 198.764C186.946 199.243 188.991 200.515 190.431 202.356C190.604 202.569 190.717 202.824 190.76 203.096C190.803 203.367 190.773 203.644 190.674 203.9C190.575 204.156 190.411 204.382 190.197 204.554C189.983 204.726 189.727 204.839 189.456 204.881L189.449 204.834Z" fill="#222222"/>
<path d="M153.605 192.513L161.263 207.844L176.964 205.816L179.269 197.819L153.605 192.513Z" fill="#413831"/>
<path d="M153.605 192.513L161.263 207.844L176.964 205.816L179.269 197.819L153.605 192.513Z" fill="url(#paint0_linear_519_251)"/>
<path d="M177.246 207.398L162.657 209.361C161.99 209.461 161.309 209.36 160.7 209.071C160.091 208.782 159.583 208.317 159.239 207.737L151.969 195.553C151.629 194.978 151.464 194.316 151.496 193.648C151.528 192.981 151.755 192.338 152.149 191.798C152.542 191.258 153.086 190.846 153.711 190.611C154.337 190.377 155.018 190.331 155.669 190.479L177.733 195.502C178.511 195.678 179.203 196.121 179.687 196.755C180.172 197.389 180.418 198.172 180.383 198.969L180.179 204.169C180.141 204.963 179.827 205.72 179.292 206.309C178.757 206.898 178.034 207.283 177.246 207.398ZM154.576 193.955L161.846 206.14C161.875 206.186 161.916 206.224 161.965 206.249C162.013 206.275 162.067 206.288 162.122 206.285L176.727 204.32C176.79 204.304 176.847 204.268 176.89 204.219C176.932 204.17 176.96 204.11 176.968 204.045L177.185 198.828C177.187 198.763 177.166 198.7 177.126 198.648C177.086 198.597 177.03 198.561 176.966 198.547L154.923 193.552C154.867 193.536 154.808 193.537 154.753 193.555C154.698 193.574 154.65 193.609 154.616 193.656C154.582 193.703 154.563 193.76 154.562 193.818C154.561 193.876 154.579 193.933 154.612 193.981L154.576 193.955Z" fill="#222222"/>
<path d="M190.727 200.129L188.049 207.963L202.606 214.775L216.338 203.705L190.727 200.129Z" fill="#413831"/>
<path d="M190.727 200.129L188.049 207.963L202.606 214.775L216.338 203.705L190.727 200.129Z" fill="url(#paint1_linear_519_251)"/>
<path d="M203.949 216.474C203.261 216.586 202.555 216.483 201.927 216.178L188.678 209.744C187.957 209.394 187.383 208.801 187.056 208.07C186.729 207.338 186.671 206.515 186.892 205.745L188.317 200.778C188.539 200.013 189.021 199.349 189.68 198.902C190.339 198.454 191.134 198.25 191.927 198.327L214.388 200.474C215.066 200.524 215.713 200.775 216.246 201.196C216.779 201.616 217.175 202.187 217.381 202.834C217.587 203.482 217.595 204.176 217.403 204.827C217.211 205.479 216.829 206.058 216.305 206.491L205.594 215.787C205.118 216.16 204.549 216.397 203.949 216.474ZM191.558 201.387C191.504 201.393 191.452 201.415 191.41 201.45C191.368 201.484 191.337 201.531 191.32 201.583L189.879 206.551C189.862 206.616 189.867 206.686 189.894 206.747C189.921 206.809 189.968 206.86 190.028 206.891L203.277 213.326C203.327 213.349 203.384 213.357 203.438 213.348C203.493 213.339 203.544 213.315 203.585 213.277L214.311 203.978C214.355 203.945 214.387 203.897 214.402 203.843C214.416 203.789 214.412 203.732 214.39 203.681C214.373 203.626 214.34 203.578 214.295 203.543C214.25 203.508 214.195 203.487 214.138 203.484L191.674 201.321L191.558 201.387Z" fill="#222222"/>
<defs>
<linearGradient id="paint0_linear_519_251" x1="158" y1="192" x2="162.979" y2="206.385" gradientUnits="userSpaceOnUse">
<stop stop-color="#CF993E"/>
<stop offset="1" stop-color="#413831"/>
</linearGradient>
<linearGradient id="paint1_linear_519_251" x1="192.027" y1="200.1" x2="196.481" y2="214.286" gradientUnits="userSpaceOnUse">
<stop stop-color="#CF993E"/>
<stop offset="1" stop-color="#413831"/>
</linearGradient>
</defs>
</svg>
